%TF.GenerationSoftware,KiCad,Pcbnew,6.0.11-3.fc37*%
%TF.CreationDate,2023-02-22T00:37:11+00:00*%
%TF.ProjectId,easter,65617374-6572-42e6-9b69-6361645f7063,rev?*%
%TF.SameCoordinates,Original*%
%TF.FileFunction,Soldermask,Top*%
%TF.FilePolarity,Negative*%
%FSLAX46Y46*%
G04 Gerber Fmt 4.6, Leading zero omitted, Abs format (unit mm)*
G04 Created by KiCad (PCBNEW 6.0.11-3.fc37) date 2023-02-22 00:37:11*
%MOMM*%
%LPD*%
G01*
G04 APERTURE LIST*
G04 Aperture macros list*
%AMRoundRect*
0 Rectangle with rounded corners*
0 $1 Rounding radius*
0 $2 $3 $4 $5 $6 $7 $8 $9 X,Y pos of 4 corners*
0 Add a 4 corners polygon primitive as box body*
4,1,4,$2,$3,$4,$5,$6,$7,$8,$9,$2,$3,0*
0 Add four circle primitives for the rounded corners*
1,1,$1+$1,$2,$3*
1,1,$1+$1,$4,$5*
1,1,$1+$1,$6,$7*
1,1,$1+$1,$8,$9*
0 Add four rect primitives between the rounded corners*
20,1,$1+$1,$2,$3,$4,$5,0*
20,1,$1+$1,$4,$5,$6,$7,0*
20,1,$1+$1,$6,$7,$8,$9,0*
20,1,$1+$1,$8,$9,$2,$3,0*%
%AMHorizOval*
0 Thick line with rounded ends*
0 $1 width*
0 $2 $3 position (X,Y) of the first rounded end (center of the circle)*
0 $4 $5 position (X,Y) of the second rounded end (center of the circle)*
0 Add line between two ends*
20,1,$1,$2,$3,$4,$5,0*
0 Add two circle primitives to create the rounded ends*
1,1,$1,$2,$3*
1,1,$1,$4,$5*%
%AMRotRect*
0 Rectangle, with rotation*
0 The origin of the aperture is its center*
0 $1 length*
0 $2 width*
0 $3 Rotation angle, in degrees counterclockwise*
0 Add horizontal line*
21,1,$1,$2,0,0,$3*%
G04 Aperture macros list end*
%ADD10C,2.000000*%
%ADD11R,1.800000X1.800000*%
%ADD12C,1.800000*%
%ADD13C,4.400000*%
%ADD14C,1.600000*%
%ADD15HorizOval,1.600000X0.000000X0.000000X0.000000X0.000000X0*%
%ADD16O,2.200000X3.500000*%
%ADD17R,1.500000X2.500000*%
%ADD18O,1.500000X2.500000*%
%ADD19RoundRect,1.000000X1.590990X-3.005204X3.005204X-1.590990X-1.590990X3.005204X-3.005204X1.590990X0*%
%ADD20R,1.050000X1.500000*%
%ADD21O,1.050000X1.500000*%
%ADD22RotRect,3.000000X5.000000X60.000000*%
%ADD23HorizOval,1.600000X0.000000X0.000000X0.000000X0.000000X0*%
%ADD24R,1.600000X1.600000*%
%ADD25RotRect,3.000000X5.000000X240.000000*%
%ADD26RotRect,2.200000X2.200000X225.000000*%
%ADD27HorizOval,2.200000X0.000000X0.000000X0.000000X0.000000X0*%
G04 APERTURE END LIST*
D10*
%TO.C,TP2*%
X131900000Y-35550000D03*
%TD*%
%TO.C,TP1*%
X109350000Y-55250000D03*
%TD*%
D11*
%TO.C,D5*%
X149215000Y-66500000D03*
D12*
X151755000Y-66500000D03*
%TD*%
D11*
%TO.C,D8*%
X152460000Y-87000000D03*
D12*
X155000000Y-87000000D03*
%TD*%
%TO.C,D7*%
X130210000Y-114500000D03*
D11*
X127670000Y-114500000D03*
%TD*%
D13*
%TO.C,H1*%
X123500000Y-31000000D03*
%TD*%
D14*
%TO.C,R6*%
X133900000Y-85950000D03*
D15*
X122901477Y-79600000D03*
%TD*%
D11*
%TO.C,D9*%
X114725000Y-95000000D03*
D12*
X117265000Y-95000000D03*
%TD*%
D11*
%TO.C,D6*%
X100725000Y-104500000D03*
D12*
X103265000Y-104500000D03*
%TD*%
D16*
%TO.C,SW1*%
X120980000Y-100785000D03*
X129180000Y-100785000D03*
D17*
X123080000Y-100785000D03*
D18*
X125080000Y-100785000D03*
X127080000Y-100785000D03*
%TD*%
D16*
%TO.C,SW3*%
X121080000Y-107285000D03*
X129280000Y-107285000D03*
D17*
X123180000Y-107285000D03*
D18*
X125180000Y-107285000D03*
X127180000Y-107285000D03*
%TD*%
D11*
%TO.C,D10*%
X134725000Y-93500000D03*
D12*
X137265000Y-93500000D03*
%TD*%
D11*
%TO.C,D4*%
X120725000Y-62000000D03*
D12*
X123265000Y-62000000D03*
%TD*%
D14*
%TO.C,R5*%
X131649997Y-89847115D03*
D15*
X120651474Y-83497115D03*
%TD*%
D19*
%TO.C,SC1*%
X113236544Y-54263456D03*
X129500000Y-38000000D03*
%TD*%
D11*
%TO.C,D3*%
X136715000Y-42000000D03*
D12*
X139255000Y-42000000D03*
%TD*%
D14*
%TO.C,R1*%
X136350000Y-81850000D03*
D15*
X125351477Y-75500000D03*
%TD*%
D11*
%TO.C,D2*%
X104725000Y-48500000D03*
D12*
X107265000Y-48500000D03*
%TD*%
D11*
%TO.C,D11*%
X116225000Y-75500000D03*
D12*
X118765000Y-75500000D03*
%TD*%
D20*
%TO.C,Q2*%
X104000000Y-59500000D03*
D21*
X102730000Y-59500000D03*
X101460000Y-59500000D03*
%TD*%
D22*
%TO.C,BT1*%
X119500000Y-115552559D03*
X141500000Y-77447441D03*
%TD*%
D14*
%TO.C,R4*%
X108500739Y-61325000D03*
D23*
X119499262Y-67675000D03*
%TD*%
D14*
%TO.C,R3*%
X155500000Y-76500000D03*
D15*
X144501477Y-70150000D03*
%TD*%
D24*
%TO.C,SW2*%
X147000000Y-83500000D03*
D14*
X149500000Y-83500000D03*
%TD*%
%TO.C,R2*%
X153500000Y-79964102D03*
D15*
X142501477Y-73614102D03*
%TD*%
D25*
%TO.C,BT2*%
X132406734Y-72197441D03*
X110406734Y-110302559D03*
%TD*%
D26*
%TO.C,D1*%
X123592103Y-52907898D03*
D27*
X116407898Y-60092103D03*
%TD*%
D20*
%TO.C,Q1*%
X123000000Y-70000000D03*
D21*
X124270000Y-70000000D03*
X125540000Y-70000000D03*
%TD*%
D24*
%TO.C,C1*%
X146000000Y-89000000D03*
D14*
X143500000Y-89000000D03*
%TD*%
M02*
