M48
; DRILL file {KiCad 6.0.11-3.fc37} date Wed 22 Feb 2023 00:24:18 GMT
; FORMAT={-:-/ absolute / inch / decimal}
; #@! TF.CreationDate,2023-02-22T00:24:18+00:00
; #@! TF.GenerationSoftware,Kicad,Pcbnew,6.0.11-3.fc37
; #@! TF.FileFunction,Plated,1,2,PTH
FMAT,2
INCH
; #@! TA.AperFunction,Plated,PTH,ViaDrill
T1C0.0157
; #@! TA.AperFunction,Plated,PTH,ComponentDrill
T2C0.0295
; #@! TA.AperFunction,Plated,PTH,ComponentDrill
T3C0.0315
; #@! TA.AperFunction,Plated,PTH,ComponentDrill
T4C0.0354
; #@! TA.AperFunction,Plated,PTH,ComponentDrill
T5C0.0394
; #@! TA.AperFunction,Plated,PTH,ComponentDrill
T6C0.0433
; #@! TA.AperFunction,Plated,PTH,ComponentDrill
T7C0.0591
; #@! TA.AperFunction,Plated,PTH,ComponentDrill
T8C0.0866
%
G90
G05
T1
X3.5433Y-3.1496
X3.5433Y-3.248
X3.5433Y-3.3465
X3.5433Y-3.4449
X3.5433Y-3.5433
X3.6417Y-2.7559
X3.6417Y-3.8386
X3.7402Y-2.3622
X3.7402Y-2.4606
X3.7402Y-4.0354
X3.8386Y-2.1654
X3.8386Y-2.2638
X3.8386Y-2.3622
X3.8386Y-4.0354
X3.8386Y-4.1339
X3.937Y-1.9685
X3.937Y-2.0669
X3.937Y-2.1654
X3.937Y-2.2638
X3.937Y-2.3622
X3.937Y-4.0354
X3.937Y-4.2323
X4.0354Y-1.8701
X4.0354Y-1.9685
X4.0354Y-2.0669
X4.0354Y-2.1654
X4.0354Y-4.2323
X4.0354Y-4.3307
X4.1339Y-1.7717
X4.1339Y-4.2323
X4.1339Y-4.3307
X4.1339Y-4.4291
X4.2323Y-1.7717
X4.2323Y-2.0669
X4.2323Y-2.1654
X4.2323Y-2.2638
X4.2323Y-2.3622
X4.2323Y-4.0354
X4.2323Y-4.1339
X4.2323Y-4.2323
X4.2323Y-4.4291
X4.3307Y-2.3622
X4.3307Y-3.937
X4.3307Y-4.0354
X4.3307Y-4.1339
X4.3307Y-4.2323
X4.3307Y-4.5276
X4.4291Y-2.3622
X4.4291Y-2.5591
X4.4291Y-2.7559
X4.4291Y-3.6417
X4.4291Y-4.0354
X4.4291Y-4.5276
X4.4882Y-2.6378
X4.5276Y-2.5591
X4.5276Y-2.7559
X4.5276Y-2.8543
X4.5276Y-3.1496
X4.5276Y-3.248
X4.5276Y-3.3465
X4.5276Y-3.4449
X4.5276Y-3.5433
X4.5276Y-3.6417
X4.5276Y-4.0354
X4.5276Y-4.1339
X4.5276Y-4.3307
X4.5276Y-4.4291
X4.5276Y-4.5276
X4.5669Y-3.7992
X4.6063Y-3.6526
X4.626Y-1.7717
X4.626Y-3.1496
X4.626Y-3.248
X4.626Y-4.0354
X4.626Y-4.1339
X4.626Y-4.3307
X4.6457Y-3.6329
X4.6654Y-2.4321
X4.7244Y-1.1811
X4.7244Y-1.2795
X4.7244Y-1.6732
X4.7244Y-1.7717
X4.7244Y-2.2638
X4.7244Y-3.1496
X4.7244Y-3.4449
X4.7244Y-3.5433
X4.7244Y-3.7402
X4.7244Y-3.8386
X4.8228Y-1.378
X4.8228Y-1.5748
X4.8228Y-1.6732
X4.8228Y-1.7717
X4.8228Y-3.4449
X4.8228Y-3.5433
X4.8228Y-3.7402
X4.8228Y-3.8386
X4.9213Y-1.378
X4.9213Y-1.4764
X4.9213Y-1.5748
X4.9213Y-1.6732
X4.9213Y-1.7717
X4.9213Y-2.1654
X4.9213Y-3.248
X4.9213Y-3.3465
X4.9213Y-3.4449
X4.9213Y-3.5433
X4.9213Y-3.7402
X4.9213Y-3.8386
X4.971Y-2.4514
X5.0197Y-1.1811
X5.0197Y-1.2795
X5.0197Y-1.5748
X5.0197Y-1.6732
X5.0197Y-1.7717
X5.0197Y-3.248
X5.0197Y-3.3465
X5.0197Y-3.4449
X5.0197Y-3.5433
X5.0438Y-4.0856
X5.0984Y-3.6526
X5.1181Y-1.2795
X5.1181Y-3.248
X5.1181Y-3.3465
X5.1181Y-3.4449
X5.1181Y-3.5433
X5.1243Y-3.8583
X5.1575Y-3.6132
X5.1575Y-3.7096
X5.158Y-4.1147
X5.1969Y-2.7007
X5.2067Y-3.7107
X5.2165Y-1.2795
X5.2165Y-1.378
X5.2165Y-1.6732
X5.2165Y-3.1496
X5.2165Y-3.248
X5.2756Y-2.9724
X5.315Y-1.378
X5.315Y-1.4764
X5.315Y-1.5748
X5.315Y-1.7717
X5.315Y-3.0512
X5.315Y-3.1496
X5.315Y-3.8386
X5.3258Y-2.7903
X5.3346Y-2.9045
X5.3937Y-3.5866
X5.4134Y-1.4764
X5.4134Y-1.7717
X5.4134Y-3.0512
X5.4134Y-4.5276
X5.4894Y-2.8177
X5.5118Y-3.248
X5.5118Y-3.3465
X5.5118Y-3.4449
X5.5118Y-3.5433
X5.5512Y-2.7953
X5.6102Y-1.6732
X5.6102Y-1.7717
X5.6102Y-3.248
X5.6102Y-3.3465
X5.6102Y-4.4291
X5.7087Y-1.8701
X5.7087Y-2.6575
X5.7087Y-2.8543
X5.7087Y-2.9528
X5.7087Y-3.248
X5.8071Y-1.9685
X5.8071Y-2.1654
X5.8071Y-2.2638
X5.8071Y-2.3622
X5.8071Y-2.4606
X5.8071Y-2.5591
X5.8071Y-2.8543
X5.8071Y-2.9528
X5.8071Y-3.0512
X5.8071Y-3.1496
X5.8461Y-2.6772
X5.9055Y-2.8543
X6.0039Y-2.4606
X6.0039Y-2.7559
X6.0039Y-2.8543
X6.0039Y-2.9528
X6.0039Y-3.5433
X6.0039Y-4.0354
X6.0309Y-3.248
X6.1024Y-2.7559
X6.1024Y-2.8543
X6.1024Y-3.248
X6.1024Y-3.3465
X6.1024Y-3.5433
X6.2008Y-3.1496
X6.2008Y-3.248
X6.2008Y-3.3465
X6.2008Y-3.4449
X6.2008Y-3.5433
T2
X3.9945Y-2.3425
X4.0445Y-2.3425
X4.0945Y-2.3425
X4.8425Y-2.7559
X4.8925Y-2.7559
X4.9425Y-2.7559
T3
X4.2717Y-2.4144
X4.7047Y-2.6644
X4.7501Y-3.2873
X4.8386Y-3.1339
X4.8457Y-3.9679
X4.8496Y-4.2238
X4.9244Y-3.9679
X4.9283Y-4.2238
X4.9351Y-2.9724
X5.0031Y-3.9679
X5.0071Y-4.2238
X5.1831Y-3.5373
X5.2717Y-3.3839
X5.3681Y-3.2224
X5.6103Y-2.8982
X5.6496Y-3.5039
X5.689Y-2.7618
X5.748Y-3.5039
X5.7874Y-3.2874
X5.8858Y-3.2874
X6.0433Y-3.1482
X6.122Y-3.0118
T4
X3.9656Y-4.1142
X4.0656Y-4.1142
X4.123Y-1.9094
X4.223Y-1.9094
X4.5167Y-3.7402
X4.5758Y-2.9724
X4.6167Y-3.7402
X4.6758Y-2.9724
X4.753Y-2.4409
X4.853Y-2.4409
X5.0264Y-4.5079
X5.1264Y-4.5079
X5.3041Y-3.6811
X5.3825Y-1.6535
X5.4041Y-3.6811
X5.4825Y-1.6535
X5.8746Y-2.6181
X5.9746Y-2.6181
X6.0024Y-3.4252
X6.1024Y-3.4252
T6
X4.583Y-2.3658
X4.8658Y-2.083
T7
X4.763Y-3.9679
X4.7669Y-4.2238
X5.0858Y-3.9679
X5.0898Y-4.2238
T8
X4.8622Y-1.2205
T5
G00X4.3893Y-4.3672
M15
G01X4.3041Y-4.318
M16
G05
G00X4.6621Y-4.5247
M15
G01X4.7473Y-4.5739
M16
G05
G00X5.2555Y-2.867
M15
G01X5.1702Y-2.8178
M16
G05
G00X5.5282Y-3.0245
M15
G01X5.6135Y-3.0737
M16
G05
T0
M30
