%TF.GenerationSoftware,KiCad,Pcbnew,6.0.11-3.fc37*%
%TF.CreationDate,2023-02-22T00:24:16+00:00*%
%TF.ProjectId,easter,65617374-6572-42e6-9b69-6361645f7063,rev?*%
%TF.SameCoordinates,Original*%
%TF.FileFunction,Soldermask,Bot*%
%TF.FilePolarity,Negative*%
%FSLAX46Y46*%
G04 Gerber Fmt 4.6, Leading zero omitted, Abs format (unit mm)*
G04 Created by KiCad (PCBNEW 6.0.11-3.fc37) date 2023-02-22 00:24:16*
%MOMM*%
%LPD*%
G01*
G04 APERTURE LIST*
G04 Aperture macros list*
%AMHorizOval*
0 Thick line with rounded ends*
0 $1 width*
0 $2 $3 position (X,Y) of the first rounded end (center of the circle)*
0 $4 $5 position (X,Y) of the second rounded end (center of the circle)*
0 Add line between two ends*
20,1,$1,$2,$3,$4,$5,0*
0 Add two circle primitives to create the rounded ends*
1,1,$1,$2,$3*
1,1,$1,$4,$5*%
%AMRotRect*
0 Rectangle, with rotation*
0 The origin of the aperture is its center*
0 $1 length*
0 $2 width*
0 $3 Rotation angle, in degrees counterclockwise*
0 Add horizontal line*
21,1,$1,$2,0,0,$3*%
G04 Aperture macros list end*
%ADD10R,1.800000X1.800000*%
%ADD11C,1.800000*%
%ADD12C,4.400000*%
%ADD13C,1.600000*%
%ADD14HorizOval,1.600000X0.000000X0.000000X0.000000X0.000000X0*%
%ADD15O,2.200000X3.500000*%
%ADD16R,1.500000X2.500000*%
%ADD17O,1.500000X2.500000*%
%ADD18R,1.050000X1.500000*%
%ADD19O,1.050000X1.500000*%
%ADD20RotRect,3.000000X5.000000X60.000000*%
%ADD21HorizOval,1.600000X0.000000X0.000000X0.000000X0.000000X0*%
%ADD22R,1.600000X1.600000*%
%ADD23RotRect,3.000000X5.000000X240.000000*%
%ADD24RotRect,2.200000X2.200000X225.000000*%
%ADD25HorizOval,2.200000X0.000000X0.000000X0.000000X0.000000X0*%
G04 APERTURE END LIST*
D10*
%TO.C,D5*%
X149215000Y-66500000D03*
D11*
X151755000Y-66500000D03*
%TD*%
D10*
%TO.C,D8*%
X152460000Y-87000000D03*
D11*
X155000000Y-87000000D03*
%TD*%
%TO.C,D7*%
X130210000Y-114500000D03*
D10*
X127670000Y-114500000D03*
%TD*%
D12*
%TO.C,H1*%
X123500000Y-31000000D03*
%TD*%
D13*
%TO.C,R6*%
X133900000Y-85950000D03*
D14*
X122901477Y-79600000D03*
%TD*%
D10*
%TO.C,D9*%
X114725000Y-95000000D03*
D11*
X117265000Y-95000000D03*
%TD*%
D10*
%TO.C,D6*%
X100725000Y-104500000D03*
D11*
X103265000Y-104500000D03*
%TD*%
D15*
%TO.C,SW1*%
X120980000Y-100785000D03*
X129180000Y-100785000D03*
D16*
X123080000Y-100785000D03*
D17*
X125080000Y-100785000D03*
X127080000Y-100785000D03*
%TD*%
D15*
%TO.C,SW3*%
X121080000Y-107285000D03*
X129280000Y-107285000D03*
D16*
X123180000Y-107285000D03*
D17*
X125180000Y-107285000D03*
X127180000Y-107285000D03*
%TD*%
D10*
%TO.C,D10*%
X134725000Y-93500000D03*
D11*
X137265000Y-93500000D03*
%TD*%
D10*
%TO.C,D4*%
X120725000Y-62000000D03*
D11*
X123265000Y-62000000D03*
%TD*%
D13*
%TO.C,R5*%
X131649997Y-89847115D03*
D14*
X120651474Y-83497115D03*
%TD*%
D10*
%TO.C,D3*%
X136715000Y-42000000D03*
D11*
X139255000Y-42000000D03*
%TD*%
D13*
%TO.C,R1*%
X136350000Y-81850000D03*
D14*
X125351477Y-75500000D03*
%TD*%
D10*
%TO.C,D2*%
X104725000Y-48500000D03*
D11*
X107265000Y-48500000D03*
%TD*%
D10*
%TO.C,D11*%
X116225000Y-75500000D03*
D11*
X118765000Y-75500000D03*
%TD*%
D18*
%TO.C,Q2*%
X104000000Y-59500000D03*
D19*
X102730000Y-59500000D03*
X101460000Y-59500000D03*
%TD*%
D20*
%TO.C,BT1*%
X119500000Y-115552559D03*
X141500000Y-77447441D03*
%TD*%
D13*
%TO.C,R4*%
X108500739Y-61325000D03*
D21*
X119499262Y-67675000D03*
%TD*%
D13*
%TO.C,R3*%
X155500000Y-76500000D03*
D14*
X144501477Y-70150000D03*
%TD*%
D22*
%TO.C,SW2*%
X147000000Y-83500000D03*
D13*
X149500000Y-83500000D03*
%TD*%
%TO.C,R2*%
X153500000Y-79964102D03*
D14*
X142501477Y-73614102D03*
%TD*%
D23*
%TO.C,BT2*%
X132406734Y-72197441D03*
X110406734Y-110302559D03*
%TD*%
D24*
%TO.C,D1*%
X123592103Y-52907898D03*
D25*
X116407898Y-60092103D03*
%TD*%
D18*
%TO.C,Q1*%
X123000000Y-70000000D03*
D19*
X124270000Y-70000000D03*
X125540000Y-70000000D03*
%TD*%
D22*
%TO.C,C1*%
X146000000Y-89000000D03*
D13*
X143500000Y-89000000D03*
%TD*%
M02*
