%TF.GenerationSoftware,KiCad,Pcbnew,6.0.11-3.fc37*%
%TF.CreationDate,2023-02-22T00:37:11+00:00*%
%TF.ProjectId,easter,65617374-6572-42e6-9b69-6361645f7063,rev?*%
%TF.SameCoordinates,Original*%
%TF.FileFunction,Legend,Top*%
%TF.FilePolarity,Positive*%
%FSLAX46Y46*%
G04 Gerber Fmt 4.6, Leading zero omitted, Abs format (unit mm)*
G04 Created by KiCad (PCBNEW 6.0.11-3.fc37) date 2023-02-22 00:37:11*
%MOMM*%
%LPD*%
G01*
G04 APERTURE LIST*
%ADD10C,0.150000*%
%ADD11C,0.120000*%
G04 APERTURE END LIST*
D10*
X121857142Y-109952380D02*
X122047619Y-109952380D01*
X122142857Y-110000000D01*
X122238095Y-110095238D01*
X122285714Y-110285714D01*
X122285714Y-110619047D01*
X122238095Y-110809523D01*
X122142857Y-110904761D01*
X122047619Y-110952380D01*
X121857142Y-110952380D01*
X121761904Y-110904761D01*
X121666666Y-110809523D01*
X121619047Y-110619047D01*
X121619047Y-110285714D01*
X121666666Y-110095238D01*
X121761904Y-110000000D01*
X121857142Y-109952380D01*
X122571428Y-110285714D02*
X122952380Y-110285714D01*
X122714285Y-110952380D02*
X122714285Y-110095238D01*
X122761904Y-110000000D01*
X122857142Y-109952380D01*
X122952380Y-109952380D01*
X123142857Y-110285714D02*
X123523809Y-110285714D01*
X123285714Y-110952380D02*
X123285714Y-110095238D01*
X123333333Y-110000000D01*
X123428571Y-109952380D01*
X123523809Y-109952380D01*
X124619047Y-110571428D02*
X125380952Y-110571428D01*
X125857142Y-110571428D02*
X126619047Y-110571428D01*
X128047619Y-109952380D02*
X128238095Y-109952380D01*
X128333333Y-110000000D01*
X128428571Y-110095238D01*
X128476190Y-110285714D01*
X128476190Y-110619047D01*
X128428571Y-110809523D01*
X128333333Y-110904761D01*
X128238095Y-110952380D01*
X128047619Y-110952380D01*
X127952380Y-110904761D01*
X127857142Y-110809523D01*
X127809523Y-110619047D01*
X127809523Y-110285714D01*
X127857142Y-110095238D01*
X127952380Y-110000000D01*
X128047619Y-109952380D01*
X128904761Y-110285714D02*
X128904761Y-110952380D01*
X128904761Y-110380952D02*
X128952380Y-110333333D01*
X129047619Y-110285714D01*
X129190476Y-110285714D01*
X129285714Y-110333333D01*
X129333333Y-110428571D01*
X129333333Y-110952380D01*
X121357142Y-95952380D02*
X121547619Y-95952380D01*
X121642857Y-96000000D01*
X121738095Y-96095238D01*
X121785714Y-96285714D01*
X121785714Y-96619047D01*
X121738095Y-96809523D01*
X121642857Y-96904761D01*
X121547619Y-96952380D01*
X121357142Y-96952380D01*
X121261904Y-96904761D01*
X121166666Y-96809523D01*
X121119047Y-96619047D01*
X121119047Y-96285714D01*
X121166666Y-96095238D01*
X121261904Y-96000000D01*
X121357142Y-95952380D01*
X122071428Y-96285714D02*
X122452380Y-96285714D01*
X122214285Y-96952380D02*
X122214285Y-96095238D01*
X122261904Y-96000000D01*
X122357142Y-95952380D01*
X122452380Y-95952380D01*
X122642857Y-96285714D02*
X123023809Y-96285714D01*
X122785714Y-96952380D02*
X122785714Y-96095238D01*
X122833333Y-96000000D01*
X122928571Y-95952380D01*
X123023809Y-95952380D01*
X124119047Y-96571428D02*
X124880952Y-96571428D01*
X125357142Y-96571428D02*
X126119047Y-96571428D01*
X127547619Y-95952380D02*
X127738095Y-95952380D01*
X127833333Y-96000000D01*
X127928571Y-96095238D01*
X127976190Y-96285714D01*
X127976190Y-96619047D01*
X127928571Y-96809523D01*
X127833333Y-96904761D01*
X127738095Y-96952380D01*
X127547619Y-96952380D01*
X127452380Y-96904761D01*
X127357142Y-96809523D01*
X127309523Y-96619047D01*
X127309523Y-96285714D01*
X127357142Y-96095238D01*
X127452380Y-96000000D01*
X127547619Y-95952380D01*
X128404761Y-96285714D02*
X128404761Y-96952380D01*
X128404761Y-96380952D02*
X128452380Y-96333333D01*
X128547619Y-96285714D01*
X128690476Y-96285714D01*
X128785714Y-96333333D01*
X128833333Y-96428571D01*
X128833333Y-96952380D01*
X111452380Y-101309523D02*
X111738095Y-101404761D01*
X112214285Y-101404761D01*
X112404761Y-101309523D01*
X112500000Y-101214285D01*
X112595238Y-101023809D01*
X112595238Y-100833333D01*
X112500000Y-100642857D01*
X112404761Y-100547619D01*
X112214285Y-100452380D01*
X111833333Y-100357142D01*
X111642857Y-100261904D01*
X111547619Y-100166666D01*
X111452380Y-99976190D01*
X111452380Y-99785714D01*
X111547619Y-99595238D01*
X111642857Y-99500000D01*
X111833333Y-99404761D01*
X112309523Y-99404761D01*
X112595238Y-99500000D01*
X113452380Y-101404761D02*
X113452380Y-99404761D01*
X114309523Y-101404761D02*
X114309523Y-100357142D01*
X114214285Y-100166666D01*
X114023809Y-100071428D01*
X113738095Y-100071428D01*
X113547619Y-100166666D01*
X113452380Y-100261904D01*
X116119047Y-101404761D02*
X116119047Y-100357142D01*
X116023809Y-100166666D01*
X115833333Y-100071428D01*
X115452380Y-100071428D01*
X115261904Y-100166666D01*
X116119047Y-101309523D02*
X115928571Y-101404761D01*
X115452380Y-101404761D01*
X115261904Y-101309523D01*
X115166666Y-101119047D01*
X115166666Y-100928571D01*
X115261904Y-100738095D01*
X115452380Y-100642857D01*
X115928571Y-100642857D01*
X116119047Y-100547619D01*
X117071428Y-101404761D02*
X117071428Y-99404761D01*
X117261904Y-100642857D02*
X117833333Y-101404761D01*
X117833333Y-100071428D02*
X117071428Y-100833333D01*
X119452380Y-101309523D02*
X119261904Y-101404761D01*
X118880952Y-101404761D01*
X118690476Y-101309523D01*
X118595238Y-101119047D01*
X118595238Y-100357142D01*
X118690476Y-100166666D01*
X118880952Y-100071428D01*
X119261904Y-100071428D01*
X119452380Y-100166666D01*
X119547619Y-100357142D01*
X119547619Y-100547619D01*
X118595238Y-100738095D01*
X111547619Y-107404761D02*
X111547619Y-105404761D01*
X112309523Y-105404761D01*
X112500000Y-105500000D01*
X112595238Y-105595238D01*
X112690476Y-105785714D01*
X112690476Y-106071428D01*
X112595238Y-106261904D01*
X112500000Y-106357142D01*
X112309523Y-106452380D01*
X111547619Y-106452380D01*
X113833333Y-107404761D02*
X113642857Y-107309523D01*
X113547619Y-107214285D01*
X113452380Y-107023809D01*
X113452380Y-106452380D01*
X113547619Y-106261904D01*
X113642857Y-106166666D01*
X113833333Y-106071428D01*
X114119047Y-106071428D01*
X114309523Y-106166666D01*
X114404761Y-106261904D01*
X114500000Y-106452380D01*
X114500000Y-107023809D01*
X114404761Y-107214285D01*
X114309523Y-107309523D01*
X114119047Y-107404761D01*
X113833333Y-107404761D01*
X115166666Y-106071428D02*
X115547619Y-107404761D01*
X115928571Y-106452380D01*
X116309523Y-107404761D01*
X116690476Y-106071428D01*
X118214285Y-107309523D02*
X118023809Y-107404761D01*
X117642857Y-107404761D01*
X117452380Y-107309523D01*
X117357142Y-107119047D01*
X117357142Y-106357142D01*
X117452380Y-106166666D01*
X117642857Y-106071428D01*
X118023809Y-106071428D01*
X118214285Y-106166666D01*
X118309523Y-106357142D01*
X118309523Y-106547619D01*
X117357142Y-106738095D01*
X119166666Y-107404761D02*
X119166666Y-106071428D01*
X119166666Y-106452380D02*
X119261904Y-106261904D01*
X119357142Y-106166666D01*
X119547619Y-106071428D01*
X119738095Y-106071428D01*
%TO.C,D5*%
X149746904Y-62992380D02*
X149746904Y-61992380D01*
X149985000Y-61992380D01*
X150127857Y-62040000D01*
X150223095Y-62135238D01*
X150270714Y-62230476D01*
X150318333Y-62420952D01*
X150318333Y-62563809D01*
X150270714Y-62754285D01*
X150223095Y-62849523D01*
X150127857Y-62944761D01*
X149985000Y-62992380D01*
X149746904Y-62992380D01*
X151223095Y-61992380D02*
X150746904Y-61992380D01*
X150699285Y-62468571D01*
X150746904Y-62420952D01*
X150842142Y-62373333D01*
X151080238Y-62373333D01*
X151175476Y-62420952D01*
X151223095Y-62468571D01*
X151270714Y-62563809D01*
X151270714Y-62801904D01*
X151223095Y-62897142D01*
X151175476Y-62944761D01*
X151080238Y-62992380D01*
X150842142Y-62992380D01*
X150746904Y-62944761D01*
X150699285Y-62897142D01*
%TO.C,D8*%
X152991904Y-83492380D02*
X152991904Y-82492380D01*
X153230000Y-82492380D01*
X153372857Y-82540000D01*
X153468095Y-82635238D01*
X153515714Y-82730476D01*
X153563333Y-82920952D01*
X153563333Y-83063809D01*
X153515714Y-83254285D01*
X153468095Y-83349523D01*
X153372857Y-83444761D01*
X153230000Y-83492380D01*
X152991904Y-83492380D01*
X154134761Y-82920952D02*
X154039523Y-82873333D01*
X153991904Y-82825714D01*
X153944285Y-82730476D01*
X153944285Y-82682857D01*
X153991904Y-82587619D01*
X154039523Y-82540000D01*
X154134761Y-82492380D01*
X154325238Y-82492380D01*
X154420476Y-82540000D01*
X154468095Y-82587619D01*
X154515714Y-82682857D01*
X154515714Y-82730476D01*
X154468095Y-82825714D01*
X154420476Y-82873333D01*
X154325238Y-82920952D01*
X154134761Y-82920952D01*
X154039523Y-82968571D01*
X153991904Y-83016190D01*
X153944285Y-83111428D01*
X153944285Y-83301904D01*
X153991904Y-83397142D01*
X154039523Y-83444761D01*
X154134761Y-83492380D01*
X154325238Y-83492380D01*
X154420476Y-83444761D01*
X154468095Y-83397142D01*
X154515714Y-83301904D01*
X154515714Y-83111428D01*
X154468095Y-83016190D01*
X154420476Y-82968571D01*
X154325238Y-82920952D01*
%TO.C,D7*%
X124261904Y-115452380D02*
X124261904Y-114452380D01*
X124500000Y-114452380D01*
X124642857Y-114500000D01*
X124738095Y-114595238D01*
X124785714Y-114690476D01*
X124833333Y-114880952D01*
X124833333Y-115023809D01*
X124785714Y-115214285D01*
X124738095Y-115309523D01*
X124642857Y-115404761D01*
X124500000Y-115452380D01*
X124261904Y-115452380D01*
X125166666Y-114452380D02*
X125833333Y-114452380D01*
X125404761Y-115452380D01*
%TO.C,R6*%
X128771267Y-82466559D02*
X128821846Y-83045619D01*
X129266138Y-82752274D02*
X128766138Y-83618299D01*
X128436224Y-83427823D01*
X128377555Y-83338965D01*
X128360125Y-83273916D01*
X128366505Y-83167628D01*
X128437933Y-83043910D01*
X128526792Y-82985241D01*
X128591840Y-82967811D01*
X128698129Y-82974191D01*
X129028043Y-83164667D01*
X127528959Y-82904013D02*
X127693916Y-82999252D01*
X127800204Y-83005631D01*
X127865253Y-82988201D01*
X128019160Y-82912103D01*
X128155638Y-82770955D01*
X128346114Y-82441040D01*
X128352494Y-82334752D01*
X128335064Y-82269704D01*
X128276395Y-82180845D01*
X128111438Y-82085607D01*
X128005150Y-82079227D01*
X127940101Y-82096657D01*
X127851242Y-82155326D01*
X127732195Y-82361523D01*
X127725815Y-82467811D01*
X127743245Y-82532860D01*
X127801914Y-82621718D01*
X127966871Y-82716956D01*
X128073159Y-82723336D01*
X128138208Y-82705906D01*
X128227066Y-82647237D01*
%TO.C,D9*%
X115256904Y-91492380D02*
X115256904Y-90492380D01*
X115495000Y-90492380D01*
X115637857Y-90540000D01*
X115733095Y-90635238D01*
X115780714Y-90730476D01*
X115828333Y-90920952D01*
X115828333Y-91063809D01*
X115780714Y-91254285D01*
X115733095Y-91349523D01*
X115637857Y-91444761D01*
X115495000Y-91492380D01*
X115256904Y-91492380D01*
X116304523Y-91492380D02*
X116495000Y-91492380D01*
X116590238Y-91444761D01*
X116637857Y-91397142D01*
X116733095Y-91254285D01*
X116780714Y-91063809D01*
X116780714Y-90682857D01*
X116733095Y-90587619D01*
X116685476Y-90540000D01*
X116590238Y-90492380D01*
X116399761Y-90492380D01*
X116304523Y-90540000D01*
X116256904Y-90587619D01*
X116209285Y-90682857D01*
X116209285Y-90920952D01*
X116256904Y-91016190D01*
X116304523Y-91063809D01*
X116399761Y-91111428D01*
X116590238Y-91111428D01*
X116685476Y-91063809D01*
X116733095Y-91016190D01*
X116780714Y-90920952D01*
%TO.C,D6*%
X104161904Y-101952380D02*
X104161904Y-100952380D01*
X104400000Y-100952380D01*
X104542857Y-101000000D01*
X104638095Y-101095238D01*
X104685714Y-101190476D01*
X104733333Y-101380952D01*
X104733333Y-101523809D01*
X104685714Y-101714285D01*
X104638095Y-101809523D01*
X104542857Y-101904761D01*
X104400000Y-101952380D01*
X104161904Y-101952380D01*
X105590476Y-100952380D02*
X105400000Y-100952380D01*
X105304761Y-101000000D01*
X105257142Y-101047619D01*
X105161904Y-101190476D01*
X105114285Y-101380952D01*
X105114285Y-101761904D01*
X105161904Y-101857142D01*
X105209523Y-101904761D01*
X105304761Y-101952380D01*
X105495238Y-101952380D01*
X105590476Y-101904761D01*
X105638095Y-101857142D01*
X105685714Y-101761904D01*
X105685714Y-101523809D01*
X105638095Y-101428571D01*
X105590476Y-101380952D01*
X105495238Y-101333333D01*
X105304761Y-101333333D01*
X105209523Y-101380952D01*
X105161904Y-101428571D01*
X105114285Y-101523809D01*
%TO.C,SW1*%
X116666666Y-102904761D02*
X116809523Y-102952380D01*
X117047619Y-102952380D01*
X117142857Y-102904761D01*
X117190476Y-102857142D01*
X117238095Y-102761904D01*
X117238095Y-102666666D01*
X117190476Y-102571428D01*
X117142857Y-102523809D01*
X117047619Y-102476190D01*
X116857142Y-102428571D01*
X116761904Y-102380952D01*
X116714285Y-102333333D01*
X116666666Y-102238095D01*
X116666666Y-102142857D01*
X116714285Y-102047619D01*
X116761904Y-102000000D01*
X116857142Y-101952380D01*
X117095238Y-101952380D01*
X117238095Y-102000000D01*
X117571428Y-101952380D02*
X117809523Y-102952380D01*
X118000000Y-102238095D01*
X118190476Y-102952380D01*
X118428571Y-101952380D01*
X119333333Y-102952380D02*
X118761904Y-102952380D01*
X119047619Y-102952380D02*
X119047619Y-101952380D01*
X118952380Y-102095238D01*
X118857142Y-102190476D01*
X118761904Y-102238095D01*
%TO.C,SW3*%
X116666666Y-109404761D02*
X116809523Y-109452380D01*
X117047619Y-109452380D01*
X117142857Y-109404761D01*
X117190476Y-109357142D01*
X117238095Y-109261904D01*
X117238095Y-109166666D01*
X117190476Y-109071428D01*
X117142857Y-109023809D01*
X117047619Y-108976190D01*
X116857142Y-108928571D01*
X116761904Y-108880952D01*
X116714285Y-108833333D01*
X116666666Y-108738095D01*
X116666666Y-108642857D01*
X116714285Y-108547619D01*
X116761904Y-108500000D01*
X116857142Y-108452380D01*
X117095238Y-108452380D01*
X117238095Y-108500000D01*
X117571428Y-108452380D02*
X117809523Y-109452380D01*
X118000000Y-108738095D01*
X118190476Y-109452380D01*
X118428571Y-108452380D01*
X118714285Y-108452380D02*
X119333333Y-108452380D01*
X119000000Y-108833333D01*
X119142857Y-108833333D01*
X119238095Y-108880952D01*
X119285714Y-108928571D01*
X119333333Y-109023809D01*
X119333333Y-109261904D01*
X119285714Y-109357142D01*
X119238095Y-109404761D01*
X119142857Y-109452380D01*
X118857142Y-109452380D01*
X118761904Y-109404761D01*
X118714285Y-109357142D01*
%TO.C,D10*%
X134780714Y-89992380D02*
X134780714Y-88992380D01*
X135018809Y-88992380D01*
X135161666Y-89040000D01*
X135256904Y-89135238D01*
X135304523Y-89230476D01*
X135352142Y-89420952D01*
X135352142Y-89563809D01*
X135304523Y-89754285D01*
X135256904Y-89849523D01*
X135161666Y-89944761D01*
X135018809Y-89992380D01*
X134780714Y-89992380D01*
X136304523Y-89992380D02*
X135733095Y-89992380D01*
X136018809Y-89992380D02*
X136018809Y-88992380D01*
X135923571Y-89135238D01*
X135828333Y-89230476D01*
X135733095Y-89278095D01*
X136923571Y-88992380D02*
X137018809Y-88992380D01*
X137114047Y-89040000D01*
X137161666Y-89087619D01*
X137209285Y-89182857D01*
X137256904Y-89373333D01*
X137256904Y-89611428D01*
X137209285Y-89801904D01*
X137161666Y-89897142D01*
X137114047Y-89944761D01*
X137018809Y-89992380D01*
X136923571Y-89992380D01*
X136828333Y-89944761D01*
X136780714Y-89897142D01*
X136733095Y-89801904D01*
X136685476Y-89611428D01*
X136685476Y-89373333D01*
X136733095Y-89182857D01*
X136780714Y-89087619D01*
X136828333Y-89040000D01*
X136923571Y-88992380D01*
%TO.C,D4*%
X121256904Y-58492380D02*
X121256904Y-57492380D01*
X121495000Y-57492380D01*
X121637857Y-57540000D01*
X121733095Y-57635238D01*
X121780714Y-57730476D01*
X121828333Y-57920952D01*
X121828333Y-58063809D01*
X121780714Y-58254285D01*
X121733095Y-58349523D01*
X121637857Y-58444761D01*
X121495000Y-58492380D01*
X121256904Y-58492380D01*
X122685476Y-57825714D02*
X122685476Y-58492380D01*
X122447380Y-57444761D02*
X122209285Y-58159047D01*
X122828333Y-58159047D01*
%TO.C,R5*%
X126521264Y-86363674D02*
X126571843Y-86942734D01*
X127016135Y-86649389D02*
X126516135Y-87515414D01*
X126186221Y-87324938D01*
X126127552Y-87236080D01*
X126110122Y-87171031D01*
X126116502Y-87064743D01*
X126187930Y-86941025D01*
X126276789Y-86882356D01*
X126341837Y-86864926D01*
X126448126Y-86871306D01*
X126778040Y-87061782D01*
X125237717Y-86777319D02*
X125650110Y-87015414D01*
X125929444Y-86626831D01*
X125864396Y-86644260D01*
X125758107Y-86637881D01*
X125551911Y-86518833D01*
X125493242Y-86429975D01*
X125475812Y-86364926D01*
X125482192Y-86258638D01*
X125601239Y-86052441D01*
X125690098Y-85993772D01*
X125755147Y-85976342D01*
X125861435Y-85982722D01*
X126067631Y-86101770D01*
X126126300Y-86190628D01*
X126143730Y-86255677D01*
%TO.C,SC1*%
X120762180Y-46603133D02*
X120896867Y-46535789D01*
X121065226Y-46367431D01*
X121098897Y-46266415D01*
X121098897Y-46199072D01*
X121065226Y-46098057D01*
X120997882Y-46030713D01*
X120896867Y-45997041D01*
X120829523Y-45997041D01*
X120728508Y-46030713D01*
X120560149Y-46131728D01*
X120459134Y-46165400D01*
X120391791Y-46165400D01*
X120290775Y-46131728D01*
X120223432Y-46064385D01*
X120189760Y-45963370D01*
X120189760Y-45896026D01*
X120223432Y-45795011D01*
X120391791Y-45626652D01*
X120526478Y-45559309D01*
X121839676Y-45458293D02*
X121839676Y-45525637D01*
X121772333Y-45660324D01*
X121704989Y-45727667D01*
X121570302Y-45795011D01*
X121435615Y-45795011D01*
X121334600Y-45761339D01*
X121166241Y-45660324D01*
X121065226Y-45559309D01*
X120964210Y-45390950D01*
X120930539Y-45289934D01*
X120930539Y-45155247D01*
X120997882Y-45020560D01*
X121065226Y-44953217D01*
X121199913Y-44885873D01*
X121267256Y-44885873D01*
X122580455Y-44852202D02*
X122176394Y-45256263D01*
X122378424Y-45054232D02*
X121671317Y-44347125D01*
X121704989Y-44515484D01*
X121704989Y-44650171D01*
X121671317Y-44751186D01*
X126368526Y-41434518D02*
X127984770Y-39818274D01*
X115054817Y-52748227D02*
X116671061Y-51131983D01*
X116671061Y-52748227D02*
X115054817Y-51131983D01*
%TO.C,D3*%
X137246904Y-38492380D02*
X137246904Y-37492380D01*
X137485000Y-37492380D01*
X137627857Y-37540000D01*
X137723095Y-37635238D01*
X137770714Y-37730476D01*
X137818333Y-37920952D01*
X137818333Y-38063809D01*
X137770714Y-38254285D01*
X137723095Y-38349523D01*
X137627857Y-38444761D01*
X137485000Y-38492380D01*
X137246904Y-38492380D01*
X138151666Y-37492380D02*
X138770714Y-37492380D01*
X138437380Y-37873333D01*
X138580238Y-37873333D01*
X138675476Y-37920952D01*
X138723095Y-37968571D01*
X138770714Y-38063809D01*
X138770714Y-38301904D01*
X138723095Y-38397142D01*
X138675476Y-38444761D01*
X138580238Y-38492380D01*
X138294523Y-38492380D01*
X138199285Y-38444761D01*
X138151666Y-38397142D01*
%TO.C,R1*%
X131221267Y-78366559D02*
X131271846Y-78945619D01*
X131716138Y-78652274D02*
X131216138Y-79518299D01*
X130886224Y-79327823D01*
X130827555Y-79238965D01*
X130810125Y-79173916D01*
X130816505Y-79067628D01*
X130887933Y-78943910D01*
X130976792Y-78885241D01*
X131041840Y-78867811D01*
X131148129Y-78874191D01*
X131478043Y-79064667D01*
X130396480Y-77890369D02*
X130891352Y-78176083D01*
X130643916Y-78033226D02*
X130143916Y-78899252D01*
X130297823Y-78823153D01*
X130427921Y-78788293D01*
X130534209Y-78794673D01*
%TO.C,D2*%
X105256904Y-44992380D02*
X105256904Y-43992380D01*
X105495000Y-43992380D01*
X105637857Y-44040000D01*
X105733095Y-44135238D01*
X105780714Y-44230476D01*
X105828333Y-44420952D01*
X105828333Y-44563809D01*
X105780714Y-44754285D01*
X105733095Y-44849523D01*
X105637857Y-44944761D01*
X105495000Y-44992380D01*
X105256904Y-44992380D01*
X106209285Y-44087619D02*
X106256904Y-44040000D01*
X106352142Y-43992380D01*
X106590238Y-43992380D01*
X106685476Y-44040000D01*
X106733095Y-44087619D01*
X106780714Y-44182857D01*
X106780714Y-44278095D01*
X106733095Y-44420952D01*
X106161666Y-44992380D01*
X106780714Y-44992380D01*
%TO.C,D11*%
X116280714Y-71992380D02*
X116280714Y-70992380D01*
X116518809Y-70992380D01*
X116661666Y-71040000D01*
X116756904Y-71135238D01*
X116804523Y-71230476D01*
X116852142Y-71420952D01*
X116852142Y-71563809D01*
X116804523Y-71754285D01*
X116756904Y-71849523D01*
X116661666Y-71944761D01*
X116518809Y-71992380D01*
X116280714Y-71992380D01*
X117804523Y-71992380D02*
X117233095Y-71992380D01*
X117518809Y-71992380D02*
X117518809Y-70992380D01*
X117423571Y-71135238D01*
X117328333Y-71230476D01*
X117233095Y-71278095D01*
X118756904Y-71992380D02*
X118185476Y-71992380D01*
X118471190Y-71992380D02*
X118471190Y-70992380D01*
X118375952Y-71135238D01*
X118280714Y-71230476D01*
X118185476Y-71278095D01*
D11*
%TO.C,D5*%
X147925000Y-64955000D02*
X147925000Y-68045000D01*
X153475000Y-66500462D02*
G75*
G03*
X147925000Y-64955170I-2990000J462D01*
G01*
X147925000Y-68044830D02*
G75*
G03*
X153475000Y-66499538I2560000J1544830D01*
G01*
X152985000Y-66500000D02*
G75*
G03*
X152985000Y-66500000I-2500000J0D01*
G01*
%TO.C,D8*%
X151170000Y-85455000D02*
X151170000Y-88545000D01*
X156720000Y-87000462D02*
G75*
G03*
X151170000Y-85455170I-2990000J462D01*
G01*
X151170000Y-88544830D02*
G75*
G03*
X156720000Y-86999538I2560000J1544830D01*
G01*
X156230000Y-87000000D02*
G75*
G03*
X156230000Y-87000000I-2500000J0D01*
G01*
%TO.C,D7*%
X131440000Y-114500000D02*
G75*
G03*
X131440000Y-114500000I-2500000J0D01*
G01*
X126380000Y-116044830D02*
G75*
G03*
X131930000Y-114499538I2560000J1544830D01*
G01*
X131930000Y-114500462D02*
G75*
G03*
X126380000Y-112955170I-2990000J462D01*
G01*
X126380000Y-112955000D02*
X126380000Y-116045000D01*
%TO.C,R6*%
X123539701Y-81954564D02*
X131541776Y-86574564D01*
X125259701Y-78975436D02*
X123539701Y-81954564D01*
X123802144Y-80120000D02*
X124399701Y-80465000D01*
X131541776Y-86574564D02*
X133261776Y-83595436D01*
X133261776Y-83595436D02*
X125259701Y-78975436D01*
X132999334Y-85430000D02*
X132401776Y-85085000D01*
%TO.C,D9*%
X113435000Y-93455000D02*
X113435000Y-96545000D01*
X118985000Y-95000462D02*
G75*
G03*
X113435000Y-93455170I-2990000J462D01*
G01*
X113435000Y-96544830D02*
G75*
G03*
X118985000Y-94999538I2560000J1544830D01*
G01*
X118495000Y-95000000D02*
G75*
G03*
X118495000Y-95000000I-2500000J0D01*
G01*
%TO.C,D6*%
X99435000Y-102955000D02*
X99435000Y-106045000D01*
X104985000Y-104500462D02*
G75*
G03*
X99435000Y-102955170I-2990000J462D01*
G01*
X99435000Y-106044830D02*
G75*
G03*
X104985000Y-104499538I2560000J1544830D01*
G01*
X104495000Y-104500000D02*
G75*
G03*
X104495000Y-104500000I-2500000J0D01*
G01*
%TO.C,SW1*%
X123580000Y-97825000D02*
X122580000Y-97825000D01*
X122580000Y-97825000D02*
X123080000Y-98325000D01*
X129490000Y-103045000D02*
X129490000Y-102735000D01*
X120670000Y-98525000D02*
X129490000Y-98525000D01*
X129490000Y-98525000D02*
X129490000Y-98835000D01*
X120670000Y-98835000D02*
X120670000Y-98525000D01*
X123080000Y-98325000D02*
X123580000Y-97825000D01*
X120670000Y-103045000D02*
X120670000Y-102735000D01*
X129490000Y-103045000D02*
X120670000Y-103045000D01*
%TO.C,SW3*%
X120770000Y-105335000D02*
X120770000Y-105025000D01*
X122680000Y-104325000D02*
X123180000Y-104825000D01*
X129590000Y-105025000D02*
X129590000Y-105335000D01*
X120770000Y-109545000D02*
X120770000Y-109235000D01*
X123680000Y-104325000D02*
X122680000Y-104325000D01*
X123180000Y-104825000D02*
X123680000Y-104325000D01*
X129590000Y-109545000D02*
X120770000Y-109545000D01*
X129590000Y-109545000D02*
X129590000Y-109235000D01*
X120770000Y-105025000D02*
X129590000Y-105025000D01*
%TO.C,D10*%
X133435000Y-91955000D02*
X133435000Y-95045000D01*
X133435000Y-95044830D02*
G75*
G03*
X138985000Y-93499538I2560000J1544830D01*
G01*
X138985000Y-93500462D02*
G75*
G03*
X133435000Y-91955170I-2990000J462D01*
G01*
X138495000Y-93500000D02*
G75*
G03*
X138495000Y-93500000I-2500000J0D01*
G01*
%TO.C,D4*%
X119435000Y-60455000D02*
X119435000Y-63545000D01*
X124985000Y-62000462D02*
G75*
G03*
X119435000Y-60455170I-2990000J462D01*
G01*
X119435000Y-63544830D02*
G75*
G03*
X124985000Y-61999538I2560000J1544830D01*
G01*
X124495000Y-62000000D02*
G75*
G03*
X124495000Y-62000000I-2500000J0D01*
G01*
%TO.C,R5*%
X130749331Y-89327115D02*
X130151773Y-88982115D01*
X123009698Y-82872551D02*
X121289698Y-85851679D01*
X129291773Y-90471679D02*
X131011773Y-87492551D01*
X121289698Y-85851679D02*
X129291773Y-90471679D01*
X121552141Y-84017115D02*
X122149698Y-84362115D01*
X131011773Y-87492551D02*
X123009698Y-82872551D01*
%TO.C,SC1*%
X111822330Y-50020816D02*
X125257359Y-36585787D01*
X125257359Y-36585787D02*
X130914213Y-42242641D01*
X130914213Y-42242641D02*
X117479184Y-55677670D01*
X117479184Y-55677670D02*
X111822330Y-50020816D01*
%TO.C,D3*%
X135425000Y-40455000D02*
X135425000Y-43545000D01*
X135425000Y-43544830D02*
G75*
G03*
X140975000Y-41999538I2560000J1544830D01*
G01*
X140975000Y-42000462D02*
G75*
G03*
X135425000Y-40455170I-2990000J462D01*
G01*
X140485000Y-42000000D02*
G75*
G03*
X140485000Y-42000000I-2500000J0D01*
G01*
%TO.C,R1*%
X127709701Y-74875436D02*
X125989701Y-77854564D01*
X125989701Y-77854564D02*
X133991776Y-82474564D01*
X135711776Y-79495436D02*
X127709701Y-74875436D01*
X135449334Y-81330000D02*
X134851776Y-80985000D01*
X126252144Y-76020000D02*
X126849701Y-76365000D01*
X133991776Y-82474564D02*
X135711776Y-79495436D01*
%TO.C,D2*%
X103435000Y-46955000D02*
X103435000Y-50045000D01*
X103435000Y-50044830D02*
G75*
G03*
X108985000Y-48499538I2560000J1544830D01*
G01*
X108985000Y-48500462D02*
G75*
G03*
X103435000Y-46955170I-2990000J462D01*
G01*
X108495000Y-48500000D02*
G75*
G03*
X108495000Y-48500000I-2500000J0D01*
G01*
%TO.C,D11*%
X114935000Y-73955000D02*
X114935000Y-77045000D01*
X114935000Y-77044830D02*
G75*
G03*
X120485000Y-75499538I2560000J1544830D01*
G01*
X120485000Y-75500462D02*
G75*
G03*
X114935000Y-73955170I-2990000J462D01*
G01*
X119995000Y-75500000D02*
G75*
G03*
X119995000Y-75500000I-2500000J0D01*
G01*
%TD*%
M02*
