%TF.GenerationSoftware,KiCad,Pcbnew,(6.0.11)*%
%TF.CreationDate,2023-03-05T17:51:38+00:00*%
%TF.ProjectId,easter,65617374-6572-42e6-9b69-6361645f7063,rev?*%
%TF.SameCoordinates,Original*%
%TF.FileFunction,Legend,Bot*%
%TF.FilePolarity,Positive*%
%FSLAX46Y46*%
G04 Gerber Fmt 4.6, Leading zero omitted, Abs format (unit mm)*
G04 Created by KiCad (PCBNEW (6.0.11)) date 2023-03-05 17:51:38*
%MOMM*%
%LPD*%
G01*
G04 APERTURE LIST*
%ADD10C,0.000000*%
%ADD11C,0.200000*%
%ADD12C,0.150000*%
%ADD13C,0.120000*%
G04 APERTURE END LIST*
D10*
G36*
X115379883Y-53474855D02*
G01*
X115147388Y-53474855D01*
X115147388Y-53242359D01*
X115379883Y-53242359D01*
X115379883Y-53474855D01*
G37*
G36*
X115379883Y-53939845D02*
G01*
X115147387Y-53939845D01*
X115147388Y-54172340D01*
X114914893Y-54172340D01*
X114914893Y-53707350D01*
X115379884Y-53707350D01*
X115379883Y-53939845D01*
G37*
G36*
X116542359Y-48592457D02*
G01*
X116309864Y-48592457D01*
X116309864Y-48359962D01*
X116542359Y-48359962D01*
X116542359Y-48592457D01*
G37*
G36*
X117239844Y-49522437D02*
G01*
X117007349Y-49522437D01*
X117007349Y-49289942D01*
X117239845Y-49289942D01*
X117239844Y-49522437D01*
G37*
G36*
X116542359Y-49057447D02*
G01*
X116309864Y-49057447D01*
X116309864Y-48824952D01*
X116542358Y-48824952D01*
X116542359Y-49057447D01*
G37*
G36*
X114914893Y-53242360D02*
G01*
X114914893Y-53707350D01*
X114682398Y-53707350D01*
X114682398Y-53474855D01*
X114682397Y-53474855D01*
X114682397Y-53242360D01*
X114914893Y-53242360D01*
G37*
G36*
X114682398Y-53009864D02*
G01*
X114682398Y-52777369D01*
X114914893Y-52777369D01*
X114914893Y-52312379D01*
X115379883Y-52312379D01*
X115379883Y-52777369D01*
X115379884Y-52777369D01*
X115379884Y-53009864D01*
X115147388Y-53009864D01*
X115147388Y-52777369D01*
X114914893Y-52777369D01*
X114914893Y-53009864D01*
X115147387Y-53009864D01*
X115147387Y-53242360D01*
X114914893Y-53242360D01*
X114914893Y-53242359D01*
X114682397Y-53242359D01*
X114682397Y-53009864D01*
X114682398Y-53009864D01*
G37*
G36*
X114449903Y-53939845D02*
G01*
X113984913Y-53939845D01*
X113984913Y-53707350D01*
X114449903Y-53707350D01*
X114449903Y-53939845D01*
G37*
G36*
X113054932Y-53939845D02*
G01*
X113287427Y-53939845D01*
X113287427Y-53707350D01*
X113752418Y-53707350D01*
X113752417Y-53939845D01*
X113519921Y-53939845D01*
X113519922Y-54172340D01*
X112822436Y-54172340D01*
X112822436Y-53939845D01*
X112589942Y-53939845D01*
X112589942Y-53707350D01*
X113054932Y-53707350D01*
X113054932Y-53939845D01*
G37*
G36*
X112822436Y-49754932D02*
G01*
X112589942Y-49754932D01*
X112589942Y-49987428D01*
X112822436Y-49987428D01*
X112822436Y-50219923D01*
X113287427Y-50219923D01*
X113287427Y-49987428D01*
X113984912Y-49987428D01*
X113984912Y-49754932D01*
X113054932Y-49754932D01*
X113054932Y-49522437D01*
X113984912Y-49522437D01*
X113984912Y-49754932D01*
X114682397Y-49754932D01*
X114682397Y-49987428D01*
X114914893Y-49987428D01*
X114914893Y-50219923D01*
X115147387Y-50219923D01*
X115147387Y-50452418D01*
X114682397Y-50452418D01*
X114682397Y-50219923D01*
X114217408Y-50219923D01*
X114217408Y-49987428D01*
X113984912Y-49987428D01*
X113984912Y-50452418D01*
X114682397Y-50452418D01*
X114682397Y-50684913D01*
X113984912Y-50684913D01*
X113984912Y-50452418D01*
X113752417Y-50452418D01*
X113752417Y-50219923D01*
X113519921Y-50219923D01*
X113519921Y-50452418D01*
X113054932Y-50452418D01*
X113054932Y-50684913D01*
X112589942Y-50684913D01*
X112589942Y-50452418D01*
X112589941Y-50452418D01*
X112589941Y-50219923D01*
X112589942Y-50219923D01*
X112589942Y-49987428D01*
X112124951Y-49987428D01*
X112124951Y-49754932D01*
X112357447Y-49754932D01*
X112357447Y-49522437D01*
X112822437Y-49522437D01*
X112822436Y-49754932D01*
G37*
G36*
X111194971Y-51614893D02*
G01*
X111194971Y-51847388D01*
X110962476Y-51847388D01*
X110962476Y-51614893D01*
X110729981Y-51614893D01*
X110729980Y-51847388D01*
X110264990Y-51847388D01*
X110264990Y-51382398D01*
X110497485Y-51382398D01*
X110497485Y-51614893D01*
X110729980Y-51614893D01*
X110729980Y-51382398D01*
X110962476Y-51382398D01*
X111427466Y-51382398D01*
X111427466Y-51149903D01*
X110962476Y-51149903D01*
X110962476Y-51382398D01*
X110729980Y-51382398D01*
X110729980Y-50917408D01*
X110962476Y-50917408D01*
X110962476Y-50684912D01*
X111194971Y-50684912D01*
X111194971Y-50917408D01*
X111892456Y-50917408D01*
X111892456Y-50684912D01*
X112124951Y-50684912D01*
X112124951Y-50452418D01*
X111892456Y-50452418D01*
X111892456Y-50219923D01*
X112124951Y-50219923D01*
X112124951Y-49987428D01*
X112357446Y-49987428D01*
X112357447Y-50219923D01*
X112357446Y-50219923D01*
X112357447Y-50452418D01*
X112357446Y-50452418D01*
X112357447Y-50684912D01*
X112357447Y-50917408D01*
X113287427Y-50917408D01*
X113287427Y-51149903D01*
X113752417Y-51149903D01*
X113752417Y-51614893D01*
X113752418Y-51614893D01*
X113752417Y-51847388D01*
X113054932Y-51847388D01*
X113054932Y-51382398D01*
X112589942Y-51382398D01*
X112589942Y-51149903D01*
X112357447Y-51149903D01*
X112357447Y-51382398D01*
X112589941Y-51382398D01*
X112589941Y-51614893D01*
X112357447Y-51614893D01*
X112357447Y-52079883D01*
X112822436Y-52079883D01*
X112822436Y-52544873D01*
X112589942Y-52544873D01*
X112589942Y-52312379D01*
X112124951Y-52312379D01*
X112124951Y-52079883D01*
X111892456Y-52079883D01*
X111892456Y-51847388D01*
X112124951Y-51847388D01*
X112124951Y-51382398D01*
X111659960Y-51382398D01*
X111659960Y-51614893D01*
X111194971Y-51614893D01*
G37*
G36*
X117239844Y-49754932D02*
G01*
X116774854Y-49754932D01*
X116774854Y-49987428D01*
X116774853Y-49987428D01*
X116774854Y-50219923D01*
X116542359Y-50219923D01*
X116542359Y-49522437D01*
X117239844Y-49522437D01*
X117239844Y-49754932D01*
G37*
G36*
X109800000Y-52544873D02*
G01*
X109567505Y-52544873D01*
X109567505Y-52312379D01*
X109800000Y-52312379D01*
X109800000Y-52544873D01*
G37*
G36*
X115379883Y-49522437D02*
G01*
X114914893Y-49522437D01*
X114914893Y-49057447D01*
X115379883Y-49057447D01*
X115379883Y-49522437D01*
G37*
G36*
X113984912Y-49289942D02*
G01*
X113984912Y-49522437D01*
X113519923Y-49522437D01*
X113519923Y-49289942D01*
X113054932Y-49289942D01*
X113054932Y-49057447D01*
X113287427Y-49057447D01*
X113984912Y-49057447D01*
X113984912Y-48824952D01*
X113287427Y-48824952D01*
X113287427Y-49057447D01*
X113054932Y-49057447D01*
X113054932Y-48824952D01*
X113287427Y-48824952D01*
X113287427Y-48592457D01*
X113984912Y-48592457D01*
X113984912Y-48824952D01*
X114217407Y-48824952D01*
X114217407Y-48592457D01*
X114449902Y-48592457D01*
X114449902Y-48824952D01*
X114682397Y-48824952D01*
X114682397Y-49057447D01*
X114449903Y-49057447D01*
X114449903Y-49289942D01*
X113984912Y-49289942D01*
G37*
G36*
X111194971Y-52777369D02*
G01*
X110962476Y-52777369D01*
X110962476Y-52544873D01*
X111194971Y-52544873D01*
X111194971Y-52777369D01*
G37*
G36*
X117239844Y-50452418D02*
G01*
X117007349Y-50452418D01*
X117007349Y-50684912D01*
X116774854Y-50684912D01*
X116774854Y-50917408D01*
X116309864Y-50917408D01*
X116309864Y-50684912D01*
X116542359Y-50684912D01*
X116542359Y-50452418D01*
X116774854Y-50452418D01*
X116774854Y-50219923D01*
X117007349Y-50219923D01*
X117007349Y-49987428D01*
X117239844Y-49987428D01*
X117239844Y-50452418D01*
G37*
G36*
X111194971Y-53242359D02*
G01*
X111194971Y-53474855D01*
X110962476Y-53474855D01*
X110962476Y-53242359D01*
X110729980Y-53242359D01*
X110729980Y-53474855D01*
X110729981Y-53474855D01*
X110729980Y-53707350D01*
X110497485Y-53707350D01*
X110497485Y-53939845D01*
X110264990Y-53939845D01*
X110264990Y-53474855D01*
X109800000Y-53474855D01*
X109800000Y-53242359D01*
X109567505Y-53242359D01*
X109567505Y-53009864D01*
X109800000Y-53009864D01*
X110032495Y-53009864D01*
X110032495Y-53242359D01*
X110264990Y-53242359D01*
X110264990Y-53009864D01*
X111427466Y-53009864D01*
X111427466Y-52312379D01*
X110729981Y-52312379D01*
X110729980Y-52544873D01*
X110729980Y-52777369D01*
X110729981Y-52777369D01*
X110729980Y-53009864D01*
X110497485Y-53009864D01*
X110497485Y-52777369D01*
X109800000Y-52777369D01*
X109800000Y-53009864D01*
X109567505Y-53009864D01*
X109567505Y-52777369D01*
X109800000Y-52777369D01*
X109800000Y-52544873D01*
X110264990Y-52544873D01*
X110264990Y-52312379D01*
X110497485Y-52312379D01*
X110497485Y-52079883D01*
X110729980Y-52079883D01*
X110729980Y-51847388D01*
X110962476Y-51847388D01*
X110962476Y-52079883D01*
X111427466Y-52079883D01*
X111427466Y-51847388D01*
X111659961Y-51847388D01*
X111659961Y-52079883D01*
X111659960Y-52079883D01*
X111659961Y-52312379D01*
X111659961Y-52544873D01*
X111659960Y-52544873D01*
X111659961Y-52777369D01*
X111659961Y-53009864D01*
X111659960Y-53009864D01*
X111659961Y-53242359D01*
X111194971Y-53242359D01*
G37*
G36*
X110264990Y-49754932D02*
G01*
X110032495Y-49754932D01*
X110032495Y-50452418D01*
X109800000Y-50452418D01*
X109800000Y-49754932D01*
X109567505Y-49754932D01*
X109567505Y-49522437D01*
X110264990Y-49522437D01*
X110264990Y-49754932D01*
G37*
G36*
X115612378Y-48127466D02*
G01*
X115612378Y-47894971D01*
X115844873Y-47894971D01*
X117007349Y-47894971D01*
X117007349Y-46732496D01*
X115844874Y-46732496D01*
X115844873Y-46964991D01*
X115844874Y-46964991D01*
X115844873Y-47197486D01*
X115844873Y-47429981D01*
X115844874Y-47429981D01*
X115844873Y-47662476D01*
X115844874Y-47662476D01*
X115844873Y-47894971D01*
X115612378Y-47894971D01*
X115612378Y-46500000D01*
X117239844Y-46500000D01*
X117239844Y-46964991D01*
X117239845Y-46964991D01*
X117239844Y-47197486D01*
X117239844Y-47429981D01*
X117239845Y-47429981D01*
X117239844Y-47662476D01*
X117239844Y-48127466D01*
X115612378Y-48127466D01*
G37*
G36*
X110032495Y-54172340D02*
G01*
X109800000Y-54172340D01*
X109800000Y-53939845D01*
X110032495Y-53939845D01*
X110032495Y-54172340D01*
G37*
G36*
X113752417Y-47662476D02*
G01*
X113984913Y-47662476D01*
X113984913Y-47429981D01*
X114217408Y-47429981D01*
X114217408Y-47894971D01*
X114449902Y-47894971D01*
X114449902Y-48127466D01*
X114682398Y-48127466D01*
X114682398Y-48592457D01*
X113519922Y-48592457D01*
X113519922Y-48359962D01*
X114217408Y-48359962D01*
X114217408Y-48127466D01*
X114217407Y-48127466D01*
X114217407Y-47894971D01*
X113984912Y-47894971D01*
X113984912Y-48127466D01*
X113752417Y-48127466D01*
X113752417Y-47894971D01*
X113519922Y-47894971D01*
X113519922Y-48359962D01*
X112589942Y-48359962D01*
X112589942Y-48127466D01*
X113287427Y-48127466D01*
X113287427Y-47894971D01*
X113054932Y-47894971D01*
X113054932Y-48127466D01*
X112822436Y-48127466D01*
X112822436Y-47894971D01*
X112589942Y-47894971D01*
X112589942Y-48127466D01*
X112357447Y-48127466D01*
X112357447Y-47662476D01*
X112822436Y-47662476D01*
X112822436Y-47429981D01*
X113054932Y-47429981D01*
X113054932Y-47197486D01*
X112822436Y-47197486D01*
X112822436Y-46732496D01*
X112589942Y-46732496D01*
X112589942Y-46500000D01*
X113054932Y-46500000D01*
X113054932Y-46732496D01*
X113519923Y-46732496D01*
X113519923Y-46500000D01*
X114217408Y-46500000D01*
X114217408Y-46964991D01*
X114449903Y-46964991D01*
X114449903Y-47197486D01*
X114682398Y-47197486D01*
X114682398Y-47429981D01*
X114217408Y-47429981D01*
X114217408Y-46964991D01*
X113984913Y-46964991D01*
X113984913Y-46732496D01*
X113519923Y-46732496D01*
X113519922Y-46964991D01*
X113984912Y-46964991D01*
X113984912Y-47197486D01*
X113519922Y-47197486D01*
X113519922Y-47429981D01*
X113287427Y-47429981D01*
X113287427Y-47662476D01*
X113519922Y-47662476D01*
X113519922Y-47429981D01*
X113752418Y-47429981D01*
X113752417Y-47662476D01*
G37*
G36*
X110497485Y-50684912D02*
G01*
X110264990Y-50684912D01*
X110264990Y-50452418D01*
X110497485Y-50452418D01*
X110497485Y-50684912D01*
G37*
G36*
X111892456Y-53939845D02*
G01*
X111659960Y-53939845D01*
X111659960Y-54172340D01*
X111194971Y-54172340D01*
X111194971Y-53939845D01*
X110962476Y-53939845D01*
X110962476Y-53707350D01*
X111892457Y-53707350D01*
X111892456Y-53939845D01*
G37*
G36*
X110729980Y-47197486D02*
G01*
X110729981Y-47197486D01*
X110729980Y-47429981D01*
X110729981Y-47429981D01*
X110729980Y-47662476D01*
X110032495Y-47662476D01*
X110032495Y-46964991D01*
X110729981Y-46964991D01*
X110729980Y-47197486D01*
G37*
G36*
X115612378Y-50219923D02*
G01*
X115147387Y-50219923D01*
X115147387Y-49987428D01*
X115612378Y-49987428D01*
X115612378Y-50219923D01*
G37*
G36*
X112822436Y-51847388D02*
G01*
X112589942Y-51847388D01*
X112589942Y-51614893D01*
X112822437Y-51614893D01*
X112822436Y-51847388D01*
G37*
G36*
X110497485Y-48592457D02*
G01*
X110032495Y-48592457D01*
X110032495Y-48359962D01*
X110497485Y-48359962D01*
X110497485Y-48592457D01*
G37*
G36*
X112124951Y-48127466D02*
G01*
X112357447Y-48127466D01*
X112357447Y-48592457D01*
X111659961Y-48592457D01*
X111659961Y-48359962D01*
X111892456Y-48359962D01*
X111892456Y-47894971D01*
X112124951Y-47894971D01*
X112124951Y-48127466D01*
G37*
G36*
X111659961Y-48127466D02*
G01*
X111427466Y-48127466D01*
X111427466Y-47662476D01*
X111659961Y-47662476D01*
X111659961Y-48127466D01*
G37*
G36*
X112124951Y-52544873D02*
G01*
X111892456Y-52544873D01*
X111892456Y-52312379D01*
X112124951Y-52312379D01*
X112124951Y-52544873D01*
G37*
G36*
X115147388Y-49754932D02*
G01*
X114914893Y-49754932D01*
X114914893Y-49522437D01*
X115147388Y-49522437D01*
X115147388Y-49754932D01*
G37*
G36*
X112589941Y-48824952D02*
G01*
X112124951Y-48824952D01*
X112124951Y-48592457D01*
X112589941Y-48592457D01*
X112589941Y-48824952D01*
G37*
G36*
X113984912Y-54172340D02*
G01*
X113752417Y-54172340D01*
X113752417Y-53939845D01*
X113984912Y-53939845D01*
X113984912Y-54172340D01*
G37*
G36*
X112124951Y-46732496D02*
G01*
X111892457Y-46732496D01*
X111892456Y-46964991D01*
X112124951Y-46964991D01*
X112124951Y-47429981D01*
X111892457Y-47429981D01*
X111892456Y-47662476D01*
X111659961Y-47662476D01*
X111659961Y-47429981D01*
X111427466Y-47429981D01*
X111427466Y-47197486D01*
X111659961Y-47197486D01*
X111659961Y-46964991D01*
X111427466Y-46964991D01*
X111427466Y-46732496D01*
X111659961Y-46732496D01*
X111659961Y-46500000D01*
X112124951Y-46500000D01*
X112124951Y-46732496D01*
G37*
G36*
X112357447Y-46732496D02*
G01*
X112357447Y-46964991D01*
X112124951Y-46964991D01*
X112124951Y-46732496D01*
X112357447Y-46732496D01*
G37*
G36*
X113054932Y-49987428D02*
G01*
X112822436Y-49987428D01*
X112822436Y-49754932D01*
X113054932Y-49754932D01*
X113054932Y-49987428D01*
G37*
G36*
X112589942Y-53707350D02*
G01*
X112357447Y-53707350D01*
X112357447Y-53939845D01*
X112357446Y-53939845D01*
X112357447Y-54172340D01*
X112124951Y-54172340D01*
X112124951Y-53939845D01*
X112124952Y-53939845D01*
X112124952Y-53474855D01*
X112589942Y-53474855D01*
X112589942Y-53707350D01*
G37*
G36*
X110962476Y-50684912D02*
G01*
X110729980Y-50684912D01*
X110729980Y-50452418D01*
X110962476Y-50452418D01*
X110962476Y-50684912D01*
G37*
G36*
X115844873Y-49057447D02*
G01*
X115612378Y-49057447D01*
X115612378Y-48824952D01*
X115844873Y-48824952D01*
X115844873Y-49057447D01*
G37*
G36*
X117239844Y-52312379D02*
G01*
X117007349Y-52312379D01*
X117007349Y-52079883D01*
X117239844Y-52079883D01*
X117239844Y-52312379D01*
G37*
G36*
X113984912Y-53474855D02*
G01*
X113752417Y-53474855D01*
X113752417Y-53242359D01*
X113984912Y-53242359D01*
X113984912Y-53474855D01*
G37*
G36*
X117007349Y-48824952D02*
G01*
X117007349Y-49057447D01*
X116774854Y-49057447D01*
X116774854Y-49522437D01*
X116309864Y-49522437D01*
X116309864Y-49289942D01*
X116542359Y-49289942D01*
X116542359Y-49057447D01*
X116774854Y-49057447D01*
X116774854Y-48592457D01*
X117007348Y-48592457D01*
X117007349Y-48824952D01*
G37*
G36*
X111659960Y-48824952D02*
G01*
X111659961Y-48824952D01*
X111659961Y-49057447D01*
X111427466Y-49057447D01*
X111427466Y-49289942D01*
X111194971Y-49289942D01*
X111194971Y-49057447D01*
X110729980Y-49057447D01*
X110729980Y-49289942D01*
X110497485Y-49289942D01*
X110497485Y-49522437D01*
X110264990Y-49522437D01*
X110264990Y-49057447D01*
X110497485Y-49057447D01*
X110497485Y-48824952D01*
X110729980Y-48824952D01*
X110729980Y-48592457D01*
X111659960Y-48592457D01*
X111659960Y-48824952D01*
G37*
G36*
X109800000Y-48592457D02*
G01*
X109567505Y-48592457D01*
X109567505Y-48359962D01*
X109800000Y-48359962D01*
X109800000Y-48592457D01*
G37*
G36*
X111892456Y-53474855D02*
G01*
X111659961Y-53474855D01*
X111659961Y-53242359D01*
X111892456Y-53242359D01*
X111892456Y-53474855D01*
G37*
G36*
X116774854Y-47429981D02*
G01*
X116774855Y-47429981D01*
X116774854Y-47662476D01*
X116077368Y-47662476D01*
X116077368Y-46964991D01*
X116774854Y-46964991D01*
X116774854Y-47429981D01*
G37*
G36*
X116077368Y-48359962D02*
G01*
X116077368Y-48592457D01*
X114914893Y-48592457D01*
X114914893Y-48127466D01*
X115147388Y-48127466D01*
X115147388Y-47662476D01*
X114914893Y-47662476D01*
X114914893Y-48127466D01*
X114682398Y-48127466D01*
X114682398Y-47894971D01*
X114449903Y-47894971D01*
X114449903Y-47662476D01*
X114682398Y-47662476D01*
X114682398Y-47429981D01*
X115147388Y-47429981D01*
X115147388Y-47197486D01*
X114682398Y-47197486D01*
X114682398Y-46964991D01*
X115379883Y-46964991D01*
X115379884Y-47197486D01*
X115379883Y-47197486D01*
X115379883Y-47429981D01*
X115147389Y-47429981D01*
X115147389Y-47662476D01*
X115379883Y-47662476D01*
X115379883Y-48359962D01*
X116077368Y-48359962D01*
G37*
G36*
X111892456Y-50219923D02*
G01*
X111659961Y-50219923D01*
X111659961Y-49754932D01*
X111892456Y-49754932D01*
X111892456Y-50219923D01*
G37*
G36*
X109800000Y-53707350D02*
G01*
X109567505Y-53707350D01*
X109567505Y-53474855D01*
X109800000Y-53474855D01*
X109800000Y-53707350D01*
G37*
G36*
X110032495Y-48824952D02*
G01*
X109800000Y-48824952D01*
X109800000Y-49057447D01*
X109567505Y-49057447D01*
X109567505Y-48592457D01*
X110032495Y-48592457D01*
X110032495Y-48824952D01*
G37*
G36*
X114217407Y-51614893D02*
G01*
X114449902Y-51614893D01*
X114449902Y-51382399D01*
X114217407Y-51382399D01*
X114217407Y-51382398D01*
X113984912Y-51382398D01*
X113984912Y-51149903D01*
X114449902Y-51149903D01*
X114449902Y-50917408D01*
X114682397Y-50917408D01*
X114682397Y-51149903D01*
X114449903Y-51149903D01*
X114449903Y-51382398D01*
X114449902Y-51382398D01*
X114449902Y-51382399D01*
X114449903Y-51382399D01*
X114449903Y-51382398D01*
X114682397Y-51382398D01*
X114682397Y-51614893D01*
X114449903Y-51614893D01*
X114449903Y-51847388D01*
X114217408Y-51847388D01*
X114217408Y-52079883D01*
X113984912Y-52079883D01*
X113984912Y-52312379D01*
X113752417Y-52312379D01*
X113752417Y-52544873D01*
X113287426Y-52544873D01*
X113287427Y-52777369D01*
X113519923Y-52777369D01*
X113519922Y-53009864D01*
X113287426Y-53009864D01*
X113287427Y-53242359D01*
X113287427Y-53707350D01*
X113054932Y-53707350D01*
X113054932Y-53242359D01*
X112822436Y-53242359D01*
X112822436Y-53009864D01*
X112589941Y-53009864D01*
X112589942Y-53242359D01*
X111892456Y-53242359D01*
X111892456Y-52777369D01*
X112357447Y-52777369D01*
X112357447Y-52544873D01*
X112589941Y-52544873D01*
X112589942Y-52777369D01*
X112822436Y-52777369D01*
X112822436Y-52544873D01*
X113054932Y-52544873D01*
X113054932Y-52079883D01*
X113752417Y-52079883D01*
X113752417Y-51847388D01*
X113984913Y-51847388D01*
X113984913Y-51614893D01*
X113984912Y-51614893D01*
X113984912Y-51382399D01*
X114217407Y-51382399D01*
X114217407Y-51614893D01*
G37*
G36*
X111194971Y-49522437D02*
G01*
X110729981Y-49522437D01*
X110729981Y-49289942D01*
X111194971Y-49289942D01*
X111194971Y-49522437D01*
G37*
G36*
X111427466Y-48592457D02*
G01*
X110729980Y-48592457D01*
X110729980Y-48359962D01*
X111427466Y-48359962D01*
X111427466Y-48592457D01*
G37*
G36*
X116774854Y-52312379D02*
G01*
X116542359Y-52312379D01*
X116542359Y-52079883D01*
X116774854Y-52079883D01*
X116774854Y-52312379D01*
G37*
G36*
X112822436Y-49057447D02*
G01*
X112589942Y-49057447D01*
X112589942Y-48824952D01*
X112822436Y-48824952D01*
X112822436Y-49057447D01*
G37*
G36*
X110729980Y-54172340D02*
G01*
X110497485Y-54172340D01*
X110497485Y-53939845D01*
X110729980Y-53939845D01*
X110729980Y-54172340D01*
G37*
G36*
X117007349Y-48592457D02*
G01*
X116774854Y-48592457D01*
X116774854Y-48359962D01*
X117007349Y-48359962D01*
X117007349Y-48592457D01*
G37*
G36*
X115844873Y-50452418D02*
G01*
X115612378Y-50452418D01*
X115612378Y-50219923D01*
X115844873Y-50219923D01*
X115844873Y-50452418D01*
G37*
G36*
X109800000Y-49522437D02*
G01*
X109567505Y-49522437D01*
X109567505Y-49289942D01*
X109800000Y-49289942D01*
X109800000Y-49522437D01*
G37*
G36*
X115844873Y-49522437D02*
G01*
X115612379Y-49522437D01*
X115612379Y-49289942D01*
X115844874Y-49289942D01*
X115844873Y-49522437D01*
G37*
G36*
X113752417Y-50917408D02*
G01*
X113519922Y-50917408D01*
X113519922Y-50452418D01*
X113752417Y-50452418D01*
X113752417Y-50917408D01*
G37*
G36*
X110264990Y-49057447D02*
G01*
X110032495Y-49057447D01*
X110032495Y-48824952D01*
X110264990Y-48824952D01*
X110264990Y-49057447D01*
G37*
G36*
X109567505Y-48127466D02*
G01*
X109567505Y-47894971D01*
X109800000Y-47894971D01*
X110962476Y-47894971D01*
X110962476Y-46732496D01*
X109800000Y-46732496D01*
X109800000Y-47894971D01*
X109567505Y-47894971D01*
X109567505Y-46500000D01*
X111194971Y-46500000D01*
X111194971Y-48127466D01*
X109567505Y-48127466D01*
G37*
G36*
X115612378Y-48824952D02*
G01*
X115379883Y-48824952D01*
X115379883Y-48592457D01*
X115612378Y-48592457D01*
X115612378Y-48824952D01*
G37*
G36*
X114449902Y-53242360D02*
G01*
X113984912Y-53242360D01*
X113984912Y-53009864D01*
X114449902Y-53009864D01*
X114449902Y-53242360D01*
G37*
G36*
X116774854Y-53242359D02*
G01*
X116774854Y-53474855D01*
X116774855Y-53474855D01*
X116774854Y-53707350D01*
X116077368Y-53707350D01*
X116077368Y-53009864D01*
X116774853Y-53009864D01*
X116774854Y-53242359D01*
G37*
G36*
X117007349Y-51382398D02*
G01*
X116774853Y-51382398D01*
X116774854Y-51614893D01*
X117239845Y-51614893D01*
X117239844Y-51847388D01*
X117007349Y-51847388D01*
X117007349Y-52079883D01*
X116774854Y-52079883D01*
X116774854Y-51847388D01*
X116542359Y-51847388D01*
X116542359Y-51149903D01*
X117007349Y-51149903D01*
X117007349Y-51382398D01*
G37*
G36*
X113984912Y-52777369D02*
G01*
X113752417Y-52777369D01*
X113752417Y-52544873D01*
X113984912Y-52544873D01*
X113984912Y-52777369D01*
G37*
G36*
X111659961Y-50452418D02*
G01*
X111892456Y-50452418D01*
X111892456Y-50684912D01*
X111659961Y-50684912D01*
X111659961Y-50917408D01*
X111427466Y-50917408D01*
X111427466Y-50684912D01*
X111194971Y-50684912D01*
X111194971Y-50452418D01*
X111427466Y-50452418D01*
X111427466Y-50219923D01*
X111659960Y-50219923D01*
X111659961Y-50452418D01*
G37*
G36*
X110729980Y-50452418D02*
G01*
X110497485Y-50452418D01*
X110497485Y-50219923D01*
X110729980Y-50219923D01*
X110729980Y-50452418D01*
G37*
G36*
X116309864Y-48824952D02*
G01*
X116077368Y-48824952D01*
X116077368Y-48592457D01*
X116309863Y-48592457D01*
X116309864Y-48824952D01*
G37*
G36*
X115379883Y-46732496D02*
G01*
X114682398Y-46732496D01*
X114682398Y-46964991D01*
X114449903Y-46964991D01*
X114449903Y-46500000D01*
X115379883Y-46500000D01*
X115379883Y-46732496D01*
G37*
G36*
X110962476Y-50452418D02*
G01*
X110962476Y-50219923D01*
X110729980Y-50219923D01*
X110729980Y-49987428D01*
X110962476Y-49987428D01*
X110962476Y-49754932D01*
X110729980Y-49754932D01*
X110729980Y-49987428D01*
X110497485Y-49987428D01*
X110497485Y-49522437D01*
X111659961Y-49522437D01*
X111659961Y-49754932D01*
X111427466Y-49754932D01*
X111427466Y-49987428D01*
X111194971Y-49987428D01*
X111194971Y-50452418D01*
X110962476Y-50452418D01*
G37*
G36*
X109800000Y-50684912D02*
G01*
X110264990Y-50684912D01*
X110264990Y-50917408D01*
X110032495Y-50917408D01*
X110032495Y-51149903D01*
X109800000Y-51149903D01*
X109800000Y-51382398D01*
X110032495Y-51382398D01*
X110032495Y-51614893D01*
X109800000Y-51614893D01*
X109800000Y-52079883D01*
X109567505Y-52079883D01*
X109567505Y-50452418D01*
X109800000Y-50452418D01*
X109800000Y-50684912D01*
G37*
G36*
X110032495Y-52312379D02*
G01*
X109800000Y-52312379D01*
X109800000Y-52079883D01*
X110032495Y-52079883D01*
X110032495Y-52312379D01*
G37*
G36*
X115379883Y-52312379D02*
G01*
X115379883Y-52079883D01*
X114914893Y-52079883D01*
X114914893Y-52312379D01*
X114682398Y-52312379D01*
X114682398Y-52544873D01*
X114682397Y-52544873D01*
X114682397Y-52777369D01*
X114449902Y-52777369D01*
X114449902Y-52544873D01*
X113984912Y-52544873D01*
X113984912Y-52312379D01*
X114449903Y-52312379D01*
X114449903Y-52079883D01*
X114682398Y-52079883D01*
X114682398Y-51847388D01*
X114914893Y-51847388D01*
X115147388Y-51847388D01*
X115379883Y-51847388D01*
X115379884Y-52079883D01*
X115844873Y-52079883D01*
X115844873Y-51847388D01*
X115379883Y-51847388D01*
X115147388Y-51847388D01*
X115147388Y-51614893D01*
X115379883Y-51614893D01*
X115379883Y-51382399D01*
X115147387Y-51382399D01*
X115147387Y-51382398D01*
X114914893Y-51382398D01*
X114914893Y-51382399D01*
X115147387Y-51382399D01*
X115147388Y-51614893D01*
X114914893Y-51614893D01*
X114914893Y-51847388D01*
X114682398Y-51847388D01*
X114682398Y-51614893D01*
X114914893Y-51614893D01*
X114914893Y-51382399D01*
X114682398Y-51382399D01*
X114682398Y-51149903D01*
X115379883Y-51149903D01*
X115379883Y-50917408D01*
X114682398Y-50917408D01*
X114682398Y-50684912D01*
X115844873Y-50684912D01*
X115844873Y-50452418D01*
X116077368Y-50452418D01*
X116077368Y-50219923D01*
X115844873Y-50219923D01*
X115844873Y-49987428D01*
X115612378Y-49987428D01*
X115612378Y-49754932D01*
X116077368Y-49754932D01*
X116077368Y-49522437D01*
X116309864Y-49522437D01*
X116309864Y-49754932D01*
X116309863Y-49754932D01*
X116309864Y-49987428D01*
X116309863Y-49987428D01*
X116309864Y-50219923D01*
X116542358Y-50219923D01*
X116542359Y-50452418D01*
X116309863Y-50452418D01*
X116309864Y-50684912D01*
X115844874Y-50684912D01*
X115844873Y-50917408D01*
X115612378Y-50917408D01*
X115612378Y-51149903D01*
X115844873Y-51149903D01*
X115844873Y-50917408D01*
X116309863Y-50917408D01*
X116309864Y-51149903D01*
X116077369Y-51149903D01*
X116077369Y-51382399D01*
X115612378Y-51382399D01*
X115612378Y-51382398D01*
X115379883Y-51382398D01*
X115379883Y-51382399D01*
X115612378Y-51382399D01*
X115612378Y-51614893D01*
X116309864Y-51614893D01*
X116309864Y-51847388D01*
X116542359Y-51847388D01*
X116542359Y-52079883D01*
X116309863Y-52079883D01*
X116309864Y-52312379D01*
X115379883Y-52312379D01*
G37*
G36*
X112124951Y-49057447D02*
G01*
X112589942Y-49057447D01*
X112589942Y-49289942D01*
X112357447Y-49289942D01*
X112357447Y-49522437D01*
X112124952Y-49522437D01*
X112124952Y-49289942D01*
X111892457Y-49289942D01*
X111892456Y-49522437D01*
X111659962Y-49522437D01*
X111659962Y-49289942D01*
X111892456Y-49289942D01*
X111892456Y-48824952D01*
X112124951Y-48824952D01*
X112124951Y-49057447D01*
G37*
G36*
X115612378Y-54172340D02*
G01*
X115612378Y-53939845D01*
X115612379Y-53939845D01*
X115844873Y-53939845D01*
X117007349Y-53939845D01*
X117007349Y-52777369D01*
X115844874Y-52777369D01*
X115844873Y-53009864D01*
X115844873Y-53474855D01*
X115844874Y-53474855D01*
X115844873Y-53707350D01*
X115844874Y-53707350D01*
X115844873Y-53939845D01*
X115612379Y-53939845D01*
X115612379Y-53474855D01*
X115612378Y-53474855D01*
X115612378Y-52544873D01*
X117239844Y-52544873D01*
X117239844Y-53474855D01*
X117239845Y-53474855D01*
X117239844Y-53707350D01*
X117239845Y-53707350D01*
X117239844Y-53939845D01*
X117239844Y-54172340D01*
X115612378Y-54172340D01*
G37*
D11*
X117314142Y-103266142D02*
X117314142Y-103909000D01*
X117357000Y-104037571D01*
X117442714Y-104123285D01*
X117571285Y-104166142D01*
X117657000Y-104166142D01*
X116457000Y-104166142D02*
X116885571Y-104166142D01*
X116885571Y-103266142D01*
X115642714Y-104080428D02*
X115685571Y-104123285D01*
X115814142Y-104166142D01*
X115899857Y-104166142D01*
X116028428Y-104123285D01*
X116114142Y-104037571D01*
X116157000Y-103951857D01*
X116199857Y-103780428D01*
X116199857Y-103651857D01*
X116157000Y-103480428D01*
X116114142Y-103394714D01*
X116028428Y-103309000D01*
X115899857Y-103266142D01*
X115814142Y-103266142D01*
X115685571Y-103309000D01*
X115642714Y-103351857D01*
X114999857Y-103266142D02*
X114999857Y-103909000D01*
X115042714Y-104037571D01*
X115128428Y-104123285D01*
X115257000Y-104166142D01*
X115342714Y-104166142D01*
X114142714Y-104166142D02*
X114571285Y-104166142D01*
X114571285Y-103266142D01*
X113328428Y-104080428D02*
X113371285Y-104123285D01*
X113499857Y-104166142D01*
X113585571Y-104166142D01*
X113714142Y-104123285D01*
X113799857Y-104037571D01*
X113842714Y-103951857D01*
X113885571Y-103780428D01*
X113885571Y-103651857D01*
X113842714Y-103480428D01*
X113799857Y-103394714D01*
X113714142Y-103309000D01*
X113585571Y-103266142D01*
X113499857Y-103266142D01*
X113371285Y-103309000D01*
X113328428Y-103351857D01*
X112685571Y-103266142D02*
X112685571Y-103909000D01*
X112728428Y-104037571D01*
X112814142Y-104123285D01*
X112942714Y-104166142D01*
X113028428Y-104166142D01*
X111828428Y-104166142D02*
X112257000Y-104166142D01*
X112257000Y-103266142D01*
X111014142Y-104080428D02*
X111057000Y-104123285D01*
X111185571Y-104166142D01*
X111271285Y-104166142D01*
X111399857Y-104123285D01*
X111485571Y-104037571D01*
X111528428Y-103951857D01*
X111571285Y-103780428D01*
X111571285Y-103651857D01*
X111528428Y-103480428D01*
X111485571Y-103394714D01*
X111399857Y-103309000D01*
X111271285Y-103266142D01*
X111185571Y-103266142D01*
X111057000Y-103309000D01*
X111014142Y-103351857D01*
X110371285Y-103266142D02*
X110371285Y-103909000D01*
X110414142Y-104037571D01*
X110499857Y-104123285D01*
X110628428Y-104166142D01*
X110714142Y-104166142D01*
X109514142Y-104166142D02*
X109942714Y-104166142D01*
X109942714Y-103266142D01*
X108699857Y-104080428D02*
X108742714Y-104123285D01*
X108871285Y-104166142D01*
X108957000Y-104166142D01*
X109085571Y-104123285D01*
X109171285Y-104037571D01*
X109214142Y-103951857D01*
X109257000Y-103780428D01*
X109257000Y-103651857D01*
X109214142Y-103480428D01*
X109171285Y-103394714D01*
X109085571Y-103309000D01*
X108957000Y-103266142D01*
X108871285Y-103266142D01*
X108742714Y-103309000D01*
X108699857Y-103351857D01*
D12*
%TO.C,Q2*%
X102825238Y-56487619D02*
X102920476Y-56440000D01*
X103015714Y-56344761D01*
X103158571Y-56201904D01*
X103253809Y-56154285D01*
X103349047Y-56154285D01*
X103301428Y-56392380D02*
X103396666Y-56344761D01*
X103491904Y-56249523D01*
X103539523Y-56059047D01*
X103539523Y-55725714D01*
X103491904Y-55535238D01*
X103396666Y-55440000D01*
X103301428Y-55392380D01*
X103110952Y-55392380D01*
X103015714Y-55440000D01*
X102920476Y-55535238D01*
X102872857Y-55725714D01*
X102872857Y-56059047D01*
X102920476Y-56249523D01*
X103015714Y-56344761D01*
X103110952Y-56392380D01*
X103301428Y-56392380D01*
X102491904Y-55487619D02*
X102444285Y-55440000D01*
X102349047Y-55392380D01*
X102110952Y-55392380D01*
X102015714Y-55440000D01*
X101968095Y-55487619D01*
X101920476Y-55582857D01*
X101920476Y-55678095D01*
X101968095Y-55820952D01*
X102539523Y-56392380D01*
X101920476Y-56392380D01*
%TO.C,TP2*%
X133161904Y-33004380D02*
X132590476Y-33004380D01*
X132876190Y-34004380D02*
X132876190Y-33004380D01*
X132257142Y-34004380D02*
X132257142Y-33004380D01*
X131876190Y-33004380D01*
X131780952Y-33052000D01*
X131733333Y-33099619D01*
X131685714Y-33194857D01*
X131685714Y-33337714D01*
X131733333Y-33432952D01*
X131780952Y-33480571D01*
X131876190Y-33528190D01*
X132257142Y-33528190D01*
X131304761Y-33099619D02*
X131257142Y-33052000D01*
X131161904Y-33004380D01*
X130923809Y-33004380D01*
X130828571Y-33052000D01*
X130780952Y-33099619D01*
X130733333Y-33194857D01*
X130733333Y-33290095D01*
X130780952Y-33432952D01*
X131352380Y-34004380D01*
X130733333Y-34004380D01*
%TO.C,BT1*%
X122719001Y-111216163D02*
X122749191Y-111068636D01*
X122731761Y-111003587D01*
X122673092Y-110914729D01*
X122549374Y-110843300D01*
X122443086Y-110836920D01*
X122378037Y-110854350D01*
X122289178Y-110913019D01*
X122098702Y-111242934D01*
X122964728Y-111742934D01*
X123131394Y-111454259D01*
X123137774Y-111347970D01*
X123120344Y-111282922D01*
X123061675Y-111194063D01*
X122979197Y-111146444D01*
X122872908Y-111140064D01*
X122807860Y-111157494D01*
X122719001Y-111216163D01*
X122552335Y-111504838D01*
X123393299Y-111000626D02*
X123679013Y-110505755D01*
X122670131Y-110253190D02*
X123536156Y-110753190D01*
X123241559Y-109263447D02*
X122955845Y-109758319D01*
X123098702Y-109510883D02*
X123964728Y-110010883D01*
X123793391Y-110021933D01*
X123663293Y-110056792D01*
X123574435Y-110115462D01*
X138992994Y-81361130D02*
X140135851Y-79381643D01*
X120492994Y-113404070D02*
X121635851Y-111424583D01*
X120074679Y-111842898D02*
X122054166Y-112985755D01*
%TO.C,R4*%
X112721852Y-66380482D02*
X112195082Y-66626208D01*
X112226981Y-66094767D02*
X111726981Y-66960793D01*
X112056895Y-67151269D01*
X112163183Y-67157649D01*
X112228232Y-67140219D01*
X112317091Y-67081550D01*
X112388519Y-66957832D01*
X112394899Y-66851544D01*
X112377469Y-66786495D01*
X112318800Y-66697637D01*
X111988886Y-66507161D01*
X113130827Y-67386403D02*
X113464160Y-66809053D01*
X112734154Y-67597270D02*
X112885100Y-66859633D01*
X113421211Y-67169157D01*
%TO.C,R3*%
X150082591Y-72849893D02*
X149555821Y-73095619D01*
X149587720Y-72564178D02*
X149087720Y-73430204D01*
X149417634Y-73620680D01*
X149523922Y-73627060D01*
X149588971Y-73609630D01*
X149677830Y-73550961D01*
X149749258Y-73427243D01*
X149755638Y-73320955D01*
X149738208Y-73255906D01*
X149679539Y-73167048D01*
X149349625Y-72976572D01*
X149871267Y-73882585D02*
X150407378Y-74192109D01*
X150309179Y-73695528D01*
X150432896Y-73766956D01*
X150539185Y-73773336D01*
X150604233Y-73755906D01*
X150693092Y-73697237D01*
X150812139Y-73491040D01*
X150818519Y-73384752D01*
X150801089Y-73319704D01*
X150742420Y-73230845D01*
X150494984Y-73087988D01*
X150388696Y-73081608D01*
X150323647Y-73099038D01*
%TO.C,TP1*%
X108461904Y-56452380D02*
X107890476Y-56452380D01*
X108176190Y-57452380D02*
X108176190Y-56452380D01*
X107557142Y-57452380D02*
X107557142Y-56452380D01*
X107176190Y-56452380D01*
X107080952Y-56500000D01*
X107033333Y-56547619D01*
X106985714Y-56642857D01*
X106985714Y-56785714D01*
X107033333Y-56880952D01*
X107080952Y-56928571D01*
X107176190Y-56976190D01*
X107557142Y-56976190D01*
X106033333Y-57452380D02*
X106604761Y-57452380D01*
X106319047Y-57452380D02*
X106319047Y-56452380D01*
X106414285Y-56595238D01*
X106509523Y-56690476D01*
X106604761Y-56738095D01*
%TO.C,SW2*%
X153383333Y-82004761D02*
X153240476Y-82052380D01*
X153002380Y-82052380D01*
X152907142Y-82004761D01*
X152859523Y-81957142D01*
X152811904Y-81861904D01*
X152811904Y-81766666D01*
X152859523Y-81671428D01*
X152907142Y-81623809D01*
X153002380Y-81576190D01*
X153192857Y-81528571D01*
X153288095Y-81480952D01*
X153335714Y-81433333D01*
X153383333Y-81338095D01*
X153383333Y-81242857D01*
X153335714Y-81147619D01*
X153288095Y-81100000D01*
X153192857Y-81052380D01*
X152954761Y-81052380D01*
X152811904Y-81100000D01*
X152478571Y-81052380D02*
X152240476Y-82052380D01*
X152050000Y-81338095D01*
X151859523Y-82052380D01*
X151621428Y-81052380D01*
X151288095Y-81147619D02*
X151240476Y-81100000D01*
X151145238Y-81052380D01*
X150907142Y-81052380D01*
X150811904Y-81100000D01*
X150764285Y-81147619D01*
X150716666Y-81242857D01*
X150716666Y-81338095D01*
X150764285Y-81480952D01*
X151335714Y-82052380D01*
X150716666Y-82052380D01*
%TO.C,R2*%
X148082591Y-76313995D02*
X147555821Y-76559721D01*
X147587720Y-76028280D02*
X147087720Y-76894306D01*
X147417634Y-77084782D01*
X147523922Y-77091162D01*
X147588971Y-77073732D01*
X147677830Y-77015063D01*
X147749258Y-76891345D01*
X147755638Y-76785057D01*
X147738208Y-76720008D01*
X147679539Y-76631150D01*
X147349625Y-76440674D01*
X147960125Y-77288018D02*
X147977555Y-77353067D01*
X148036224Y-77441925D01*
X148242420Y-77560973D01*
X148348708Y-77567352D01*
X148413757Y-77549923D01*
X148502616Y-77491253D01*
X148550235Y-77408775D01*
X148580424Y-77261247D01*
X148371267Y-76480661D01*
X148907378Y-76790185D01*
%TO.C,BT2*%
X129680998Y-76983837D02*
X129650808Y-77131364D01*
X129668238Y-77196413D01*
X129726907Y-77285271D01*
X129850625Y-77356700D01*
X129956913Y-77363080D01*
X130021962Y-77345650D01*
X130110821Y-77286981D01*
X130301297Y-76957066D01*
X129435271Y-76457066D01*
X129268605Y-76745741D01*
X129262225Y-76852030D01*
X129279655Y-76917078D01*
X129338324Y-77005937D01*
X129420802Y-77053556D01*
X129527091Y-77059936D01*
X129592139Y-77042506D01*
X129680998Y-76983837D01*
X129847664Y-76695162D01*
X129006700Y-77199374D02*
X128720986Y-77694245D01*
X129729868Y-77946810D02*
X128863843Y-77446810D01*
X128660607Y-77989300D02*
X128595558Y-78006730D01*
X128506700Y-78065399D01*
X128387652Y-78271596D01*
X128381273Y-78377884D01*
X128398702Y-78442933D01*
X128457371Y-78531791D01*
X128539850Y-78579410D01*
X128687377Y-78609599D01*
X129467963Y-78400442D01*
X129158440Y-78936553D01*
X131413739Y-74345929D02*
X130270882Y-76325416D01*
X131832054Y-75907101D02*
X129852567Y-74764244D01*
X112913739Y-106388869D02*
X111770882Y-108368356D01*
%TO.C,D1*%
X119095240Y-54551416D02*
X118388134Y-53844309D01*
X118219775Y-54012668D01*
X118152431Y-54147355D01*
X118152431Y-54282042D01*
X118186103Y-54383057D01*
X118287118Y-54551416D01*
X118388134Y-54652431D01*
X118556492Y-54753447D01*
X118657508Y-54787118D01*
X118792195Y-54787118D01*
X118926882Y-54719775D01*
X119095240Y-54551416D01*
X118017744Y-55628912D02*
X118421805Y-55224851D01*
X118219775Y-55426882D02*
X117512668Y-54719775D01*
X117681027Y-54753447D01*
X117815714Y-54753447D01*
X117916729Y-54719775D01*
X122612255Y-51557661D02*
X121905148Y-50850554D01*
X122208194Y-51961722D02*
X122107179Y-51254615D01*
X121501087Y-51254615D02*
X122309209Y-51254615D01*
%TO.C,Q1*%
X124365238Y-74107619D02*
X124460476Y-74060000D01*
X124555714Y-73964761D01*
X124698571Y-73821904D01*
X124793809Y-73774285D01*
X124889047Y-73774285D01*
X124841428Y-74012380D02*
X124936666Y-73964761D01*
X125031904Y-73869523D01*
X125079523Y-73679047D01*
X125079523Y-73345714D01*
X125031904Y-73155238D01*
X124936666Y-73060000D01*
X124841428Y-73012380D01*
X124650952Y-73012380D01*
X124555714Y-73060000D01*
X124460476Y-73155238D01*
X124412857Y-73345714D01*
X124412857Y-73679047D01*
X124460476Y-73869523D01*
X124555714Y-73964761D01*
X124650952Y-74012380D01*
X124841428Y-74012380D01*
X123460476Y-74012380D02*
X124031904Y-74012380D01*
X123746190Y-74012380D02*
X123746190Y-73012380D01*
X123841428Y-73155238D01*
X123936666Y-73250476D01*
X124031904Y-73298095D01*
%TO.C,C1*%
X144416666Y-84907142D02*
X144464285Y-84954761D01*
X144607142Y-85002380D01*
X144702380Y-85002380D01*
X144845238Y-84954761D01*
X144940476Y-84859523D01*
X144988095Y-84764285D01*
X145035714Y-84573809D01*
X145035714Y-84430952D01*
X144988095Y-84240476D01*
X144940476Y-84145238D01*
X144845238Y-84050000D01*
X144702380Y-84002380D01*
X144607142Y-84002380D01*
X144464285Y-84050000D01*
X144416666Y-84097619D01*
X143464285Y-85002380D02*
X144035714Y-85002380D01*
X143750000Y-85002380D02*
X143750000Y-84002380D01*
X143845238Y-84145238D01*
X143940476Y-84240476D01*
X144035714Y-84288095D01*
D13*
%TO.C,Q2*%
X104530000Y-61350000D02*
X100930000Y-61350000D01*
X104568478Y-61338478D02*
G75*
G03*
X102730000Y-56900000I-1838478J1838478D01*
G01*
X102730000Y-56899999D02*
G75*
G03*
X100891522Y-61338478I0J-2600001D01*
G01*
%TO.C,TP2*%
X133100000Y-35550000D02*
G75*
G03*
X133100000Y-35550000I-1200000J0D01*
G01*
%TO.C,BT1*%
X124080127Y-117619546D02*
X145580127Y-80380454D01*
X145580127Y-80380454D02*
X136919873Y-75380454D01*
X136919873Y-75380454D02*
X115419873Y-112619546D01*
X115419873Y-112619546D02*
X124080127Y-117619546D01*
%TO.C,R4*%
X118861038Y-65320436D02*
X117141038Y-68299564D01*
X110858963Y-60700436D02*
X118861038Y-65320436D01*
X109138963Y-63679564D02*
X110858963Y-60700436D01*
X117141038Y-68299564D02*
X109138963Y-63679564D01*
X118598595Y-67155000D02*
X118001038Y-66810000D01*
X109401405Y-61845000D02*
X109998963Y-62190000D01*
%TO.C,R3*%
X146859701Y-69525436D02*
X154861776Y-74145436D01*
X145402144Y-70670000D02*
X145999701Y-71015000D01*
X154861776Y-74145436D02*
X153141776Y-77124564D01*
X154599334Y-75980000D02*
X154001776Y-75635000D01*
X153141776Y-77124564D02*
X145139701Y-72504564D01*
X145139701Y-72504564D02*
X146859701Y-69525436D01*
%TO.C,TP1*%
X110550000Y-55250000D02*
G75*
G03*
X110550000Y-55250000I-1200000J0D01*
G01*
%TO.C,SW2*%
X148530000Y-86065000D02*
X148530000Y-84540000D01*
X149851000Y-85535000D02*
X149851000Y-84540000D01*
X150051000Y-82460000D02*
X150051000Y-81636000D01*
X149811000Y-82460000D02*
X149811000Y-81435000D01*
X148490000Y-86069000D02*
X148490000Y-84540000D01*
X150491000Y-82460000D02*
X150491000Y-82181000D01*
X149091000Y-82460000D02*
X149091000Y-81058000D01*
X145445225Y-84975000D02*
X145945225Y-84975000D01*
X149011000Y-85968000D02*
X149011000Y-84540000D01*
X150331000Y-82460000D02*
X150331000Y-81946000D01*
X149251000Y-82460000D02*
X149251000Y-81118000D01*
X148730000Y-86036000D02*
X148730000Y-84540000D01*
X150451000Y-84883000D02*
X150451000Y-84540000D01*
X149531000Y-85747000D02*
X149531000Y-84540000D01*
X150731000Y-84305000D02*
X150731000Y-82695000D01*
X149451000Y-85790000D02*
X149451000Y-84540000D01*
X149931000Y-85471000D02*
X149931000Y-84540000D01*
X149331000Y-85848000D02*
X149331000Y-84540000D01*
X150371000Y-85000000D02*
X150371000Y-84540000D01*
X149011000Y-82460000D02*
X149011000Y-81032000D01*
X149571000Y-82460000D02*
X149571000Y-81276000D01*
X149891000Y-82460000D02*
X149891000Y-81496000D01*
X148610000Y-86056000D02*
X148610000Y-84540000D01*
X149371000Y-85829000D02*
X149371000Y-84540000D01*
X148850000Y-86011000D02*
X148850000Y-84540000D01*
X150331000Y-85054000D02*
X150331000Y-84540000D01*
X149051000Y-85955000D02*
X149051000Y-84540000D01*
X148290000Y-86080000D02*
X148290000Y-80920000D01*
X149651000Y-85675000D02*
X149651000Y-84540000D01*
X150251000Y-85153000D02*
X150251000Y-84540000D01*
X148610000Y-82460000D02*
X148610000Y-80944000D01*
X145695225Y-85225000D02*
X145695225Y-84725000D01*
X150691000Y-84415000D02*
X150691000Y-82585000D01*
X148890000Y-82460000D02*
X148890000Y-80999000D01*
X149371000Y-82460000D02*
X149371000Y-81171000D01*
X148690000Y-82460000D02*
X148690000Y-80957000D01*
X148770000Y-82460000D02*
X148770000Y-80972000D01*
X148570000Y-86061000D02*
X148570000Y-84540000D01*
X149571000Y-85724000D02*
X149571000Y-84540000D01*
X149051000Y-82460000D02*
X149051000Y-81045000D01*
X150571000Y-84678000D02*
X150571000Y-82322000D01*
X149691000Y-82460000D02*
X149691000Y-81351000D01*
X149451000Y-82460000D02*
X149451000Y-81210000D01*
X148410000Y-86076000D02*
X148410000Y-80924000D01*
X149651000Y-82460000D02*
X149651000Y-81325000D01*
X150251000Y-82460000D02*
X150251000Y-81847000D01*
X149691000Y-85649000D02*
X149691000Y-84540000D01*
X149251000Y-85882000D02*
X149251000Y-84540000D01*
X149491000Y-82460000D02*
X149491000Y-81232000D01*
X149131000Y-85928000D02*
X149131000Y-84540000D01*
X150131000Y-82460000D02*
X150131000Y-81715000D01*
X150091000Y-82460000D02*
X150091000Y-81674000D01*
X150371000Y-82460000D02*
X150371000Y-82000000D01*
X149811000Y-85565000D02*
X149811000Y-84540000D01*
X149291000Y-82460000D02*
X149291000Y-81135000D01*
X148530000Y-82460000D02*
X148530000Y-80935000D01*
X150611000Y-84598000D02*
X150611000Y-82402000D01*
X149171000Y-85914000D02*
X149171000Y-84540000D01*
X148770000Y-86028000D02*
X148770000Y-84540000D01*
X149171000Y-82460000D02*
X149171000Y-81086000D01*
X148650000Y-86050000D02*
X148650000Y-84540000D01*
X150211000Y-85199000D02*
X150211000Y-84540000D01*
X150851000Y-83784000D02*
X150851000Y-83216000D01*
X150411000Y-84943000D02*
X150411000Y-84540000D01*
X148890000Y-86001000D02*
X148890000Y-84540000D01*
X150171000Y-85243000D02*
X150171000Y-84540000D01*
X150291000Y-85105000D02*
X150291000Y-84540000D01*
X149491000Y-85768000D02*
X149491000Y-84540000D01*
X149131000Y-82460000D02*
X149131000Y-81072000D01*
X150171000Y-82460000D02*
X150171000Y-81757000D01*
X149291000Y-85865000D02*
X149291000Y-84540000D01*
X148330000Y-86079000D02*
X148330000Y-80921000D01*
X150131000Y-85285000D02*
X150131000Y-84540000D01*
X149731000Y-85622000D02*
X149731000Y-84540000D01*
X149331000Y-82460000D02*
X149331000Y-81152000D01*
X149211000Y-85898000D02*
X149211000Y-84540000D01*
X150531000Y-82460000D02*
X150531000Y-82249000D01*
X148930000Y-85991000D02*
X148930000Y-84540000D01*
X150051000Y-85364000D02*
X150051000Y-84540000D01*
X150411000Y-82460000D02*
X150411000Y-82057000D01*
X149411000Y-82460000D02*
X149411000Y-81190000D01*
X149771000Y-85595000D02*
X149771000Y-84540000D01*
X150811000Y-84018000D02*
X150811000Y-82982000D01*
X149891000Y-85504000D02*
X149891000Y-84540000D01*
X148810000Y-86020000D02*
X148810000Y-84540000D01*
X149971000Y-82460000D02*
X149971000Y-81563000D01*
X149771000Y-82460000D02*
X149771000Y-81405000D01*
X148570000Y-82460000D02*
X148570000Y-80939000D01*
X148730000Y-82460000D02*
X148730000Y-80964000D01*
X148971000Y-82460000D02*
X148971000Y-81020000D01*
X149731000Y-82460000D02*
X149731000Y-81378000D01*
X149411000Y-85810000D02*
X149411000Y-84540000D01*
X148370000Y-86078000D02*
X148370000Y-80922000D01*
X149211000Y-82460000D02*
X149211000Y-81102000D01*
X149531000Y-82460000D02*
X149531000Y-81253000D01*
X148690000Y-86043000D02*
X148690000Y-84540000D01*
X149611000Y-82460000D02*
X149611000Y-81300000D01*
X150451000Y-82460000D02*
X150451000Y-82117000D01*
X150291000Y-82460000D02*
X150291000Y-81895000D01*
X150771000Y-84177000D02*
X150771000Y-82823000D01*
X150211000Y-82460000D02*
X150211000Y-81801000D01*
X149851000Y-82460000D02*
X149851000Y-81465000D01*
X149971000Y-85437000D02*
X149971000Y-84540000D01*
X149611000Y-85700000D02*
X149611000Y-84540000D01*
X150011000Y-82460000D02*
X150011000Y-81599000D01*
X148971000Y-85980000D02*
X148971000Y-84540000D01*
X150531000Y-84751000D02*
X150531000Y-84540000D01*
X150011000Y-85401000D02*
X150011000Y-84540000D01*
X149931000Y-82460000D02*
X149931000Y-81529000D01*
X148450000Y-86073000D02*
X148450000Y-80927000D01*
X148810000Y-82460000D02*
X148810000Y-80980000D01*
X148490000Y-82460000D02*
X148490000Y-80931000D01*
X150651000Y-84511000D02*
X150651000Y-82489000D01*
X148250000Y-86080000D02*
X148250000Y-80920000D01*
X148850000Y-82460000D02*
X148850000Y-80989000D01*
X150491000Y-84819000D02*
X150491000Y-84540000D01*
X148930000Y-82460000D02*
X148930000Y-81009000D01*
X149091000Y-85942000D02*
X149091000Y-84540000D01*
X150091000Y-85326000D02*
X150091000Y-84540000D01*
X148650000Y-82460000D02*
X148650000Y-80950000D01*
X150870000Y-83500000D02*
G75*
G03*
X150870000Y-83500000I-2620000J0D01*
G01*
%TO.C,R2*%
X143402144Y-74134102D02*
X143999701Y-74479102D01*
X144859701Y-72989538D02*
X152861776Y-77609538D01*
X152599334Y-79444102D02*
X152001776Y-79099102D01*
X143139701Y-75968666D02*
X144859701Y-72989538D01*
X151141776Y-80588666D02*
X143139701Y-75968666D01*
X152861776Y-77609538D02*
X151141776Y-80588666D01*
%TO.C,BT2*%
X127826607Y-70130454D02*
X106326607Y-107369546D01*
X106326607Y-107369546D02*
X114986861Y-112369546D01*
X114986861Y-112369546D02*
X136486861Y-75130454D01*
X136486861Y-75130454D02*
X127826607Y-70130454D01*
%TO.C,D1*%
X120162635Y-54258472D02*
X122241529Y-56337366D01*
X117355421Y-59144580D02*
X118076670Y-58423331D01*
X122644580Y-53855421D02*
X121923331Y-54576670D01*
X122962778Y-55616117D02*
X119116117Y-59462778D01*
X120247488Y-54173619D02*
X122326382Y-56252513D01*
X120883884Y-53537223D02*
X122962778Y-55616117D01*
X120332341Y-54088766D02*
X122411235Y-56167660D01*
X117037223Y-57383884D02*
X120883884Y-53537223D01*
X119116117Y-59462778D02*
X117037223Y-57383884D01*
%TO.C,Q1*%
X122470000Y-68150000D02*
X126070000Y-68150000D01*
X122431522Y-68161522D02*
G75*
G03*
X124270000Y-72600000I1838478J-1838478D01*
G01*
X124270000Y-72600001D02*
G75*
G03*
X126108478Y-68161522I0J2600001D01*
G01*
%TO.C,C1*%
X143629000Y-90040000D02*
X143629000Y-92033000D01*
X144230000Y-90040000D02*
X144230000Y-92189000D01*
X143029000Y-90040000D02*
X143029000Y-91742000D01*
X144150000Y-85825000D02*
X144150000Y-87960000D01*
X144430000Y-85785000D02*
X144430000Y-87960000D01*
X142189000Y-87005000D02*
X142189000Y-90995000D01*
X144190000Y-85818000D02*
X144190000Y-87960000D01*
X144350000Y-90040000D02*
X144350000Y-92206000D01*
X142589000Y-90040000D02*
X142589000Y-91416000D01*
X141909000Y-87419000D02*
X141909000Y-90581000D01*
X142789000Y-90040000D02*
X142789000Y-91578000D01*
X142349000Y-86818000D02*
X142349000Y-91182000D01*
X143309000Y-90040000D02*
X143309000Y-91896000D01*
X143469000Y-86030000D02*
X143469000Y-87960000D01*
X143789000Y-90040000D02*
X143789000Y-92086000D01*
X141949000Y-87350000D02*
X141949000Y-90650000D01*
X144390000Y-85789000D02*
X144390000Y-87960000D01*
X142149000Y-87056000D02*
X142149000Y-90944000D01*
X143909000Y-90040000D02*
X143909000Y-92121000D01*
X144510000Y-85778000D02*
X144510000Y-87960000D01*
X142829000Y-90040000D02*
X142829000Y-91607000D01*
X143669000Y-90040000D02*
X143669000Y-92047000D01*
X143749000Y-90040000D02*
X143749000Y-92074000D01*
X141829000Y-87568000D02*
X141829000Y-90432000D01*
X144750000Y-85770000D02*
X144750000Y-92230000D01*
X142309000Y-86863000D02*
X142309000Y-91137000D01*
X142469000Y-86695000D02*
X142469000Y-87960000D01*
X142469000Y-90040000D02*
X142469000Y-91305000D01*
X141589000Y-88198000D02*
X141589000Y-89802000D01*
X141869000Y-87491000D02*
X141869000Y-90509000D01*
X143189000Y-90040000D02*
X143189000Y-91834000D01*
X143309000Y-86104000D02*
X143309000Y-87960000D01*
X142589000Y-86584000D02*
X142589000Y-87960000D01*
X142549000Y-86620000D02*
X142549000Y-87960000D01*
X143589000Y-85982000D02*
X143589000Y-87960000D01*
X142629000Y-86550000D02*
X142629000Y-87960000D01*
X141629000Y-88060000D02*
X141629000Y-89940000D01*
X143189000Y-86166000D02*
X143189000Y-87960000D01*
X143749000Y-85926000D02*
X143749000Y-87960000D01*
X144710000Y-85770000D02*
X144710000Y-92230000D01*
X143669000Y-85953000D02*
X143669000Y-87960000D01*
X144270000Y-85805000D02*
X144270000Y-87960000D01*
X143829000Y-90040000D02*
X143829000Y-92098000D01*
X142069000Y-87166000D02*
X142069000Y-90834000D01*
X144550000Y-85776000D02*
X144550000Y-92224000D01*
X143349000Y-90040000D02*
X143349000Y-91916000D01*
X143149000Y-90040000D02*
X143149000Y-91812000D01*
X143429000Y-90040000D02*
X143429000Y-91952000D01*
X144190000Y-90040000D02*
X144190000Y-92182000D01*
X141789000Y-87650000D02*
X141789000Y-90350000D01*
X148250241Y-87161000D02*
X147620241Y-87161000D01*
X144110000Y-90040000D02*
X144110000Y-92167000D01*
X142509000Y-90040000D02*
X142509000Y-91343000D01*
X144230000Y-85811000D02*
X144230000Y-87960000D01*
X141709000Y-87835000D02*
X141709000Y-90165000D01*
X142949000Y-86310000D02*
X142949000Y-87960000D01*
X143429000Y-86048000D02*
X143429000Y-87960000D01*
X143469000Y-90040000D02*
X143469000Y-91970000D01*
X143509000Y-90040000D02*
X143509000Y-91986000D01*
X144029000Y-90040000D02*
X144029000Y-92150000D01*
X143909000Y-85879000D02*
X143909000Y-87960000D01*
X144510000Y-90040000D02*
X144510000Y-92222000D01*
X142749000Y-86452000D02*
X142749000Y-87960000D01*
X142909000Y-86336000D02*
X142909000Y-87960000D01*
X143589000Y-90040000D02*
X143589000Y-92018000D01*
X142869000Y-86364000D02*
X142869000Y-87960000D01*
X141749000Y-87738000D02*
X141749000Y-90262000D01*
X143949000Y-85869000D02*
X143949000Y-87960000D01*
X143069000Y-90040000D02*
X143069000Y-91766000D01*
X143789000Y-85914000D02*
X143789000Y-87960000D01*
X143029000Y-86258000D02*
X143029000Y-87960000D01*
X144470000Y-85782000D02*
X144470000Y-87960000D01*
X144350000Y-85794000D02*
X144350000Y-87960000D01*
X142509000Y-86657000D02*
X142509000Y-87960000D01*
X143069000Y-86234000D02*
X143069000Y-87960000D01*
X142989000Y-90040000D02*
X142989000Y-91716000D01*
X143509000Y-86014000D02*
X143509000Y-87960000D01*
X143829000Y-85902000D02*
X143829000Y-87960000D01*
X143869000Y-85890000D02*
X143869000Y-87960000D01*
X143229000Y-86144000D02*
X143229000Y-87960000D01*
X142669000Y-90040000D02*
X142669000Y-91484000D01*
X143989000Y-90040000D02*
X143989000Y-92141000D01*
X144029000Y-85850000D02*
X144029000Y-87960000D01*
X142109000Y-87110000D02*
X142109000Y-90890000D01*
X143709000Y-85939000D02*
X143709000Y-87960000D01*
X143269000Y-90040000D02*
X143269000Y-91876000D01*
X142989000Y-86284000D02*
X142989000Y-87960000D01*
X143549000Y-85998000D02*
X143549000Y-87960000D01*
X144470000Y-90040000D02*
X144470000Y-92218000D01*
X144070000Y-85841000D02*
X144070000Y-87960000D01*
X142709000Y-86484000D02*
X142709000Y-87960000D01*
X143709000Y-90040000D02*
X143709000Y-92061000D01*
X143109000Y-86210000D02*
X143109000Y-87960000D01*
X143389000Y-86066000D02*
X143389000Y-87960000D01*
X144070000Y-90040000D02*
X144070000Y-92159000D01*
X144310000Y-85799000D02*
X144310000Y-87960000D01*
X143989000Y-85859000D02*
X143989000Y-87960000D01*
X144390000Y-90040000D02*
X144390000Y-92211000D01*
X143949000Y-90040000D02*
X143949000Y-92131000D01*
X144110000Y-85833000D02*
X144110000Y-87960000D01*
X142869000Y-90040000D02*
X142869000Y-91636000D01*
X143349000Y-86084000D02*
X143349000Y-87960000D01*
X143869000Y-90040000D02*
X143869000Y-92110000D01*
X142949000Y-90040000D02*
X142949000Y-91690000D01*
X143149000Y-86188000D02*
X143149000Y-87960000D01*
X142629000Y-90040000D02*
X142629000Y-91450000D01*
X144310000Y-90040000D02*
X144310000Y-92201000D01*
X143549000Y-90040000D02*
X143549000Y-92002000D01*
X142749000Y-90040000D02*
X142749000Y-91548000D01*
X141989000Y-87286000D02*
X141989000Y-90714000D01*
X142029000Y-87224000D02*
X142029000Y-90776000D01*
X143629000Y-85967000D02*
X143629000Y-87960000D01*
X144150000Y-90040000D02*
X144150000Y-92175000D01*
X142229000Y-86956000D02*
X142229000Y-91044000D01*
X143229000Y-90040000D02*
X143229000Y-91856000D01*
X141509000Y-88598000D02*
X141509000Y-89402000D01*
X144590000Y-85773000D02*
X144590000Y-92227000D01*
X144630000Y-85772000D02*
X144630000Y-92228000D01*
X142429000Y-86735000D02*
X142429000Y-91265000D01*
X142829000Y-86393000D02*
X142829000Y-87960000D01*
X142789000Y-86422000D02*
X142789000Y-87960000D01*
X141669000Y-87941000D02*
X141669000Y-90059000D01*
X142269000Y-86908000D02*
X142269000Y-91092000D01*
X143269000Y-86124000D02*
X143269000Y-87960000D01*
X141549000Y-88367000D02*
X141549000Y-89633000D01*
X142909000Y-90040000D02*
X142909000Y-91664000D01*
X144430000Y-90040000D02*
X144430000Y-92215000D01*
X143389000Y-90040000D02*
X143389000Y-91934000D01*
X142389000Y-86776000D02*
X142389000Y-91224000D01*
X142549000Y-90040000D02*
X142549000Y-91380000D01*
X144670000Y-85770000D02*
X144670000Y-92230000D01*
X142709000Y-90040000D02*
X142709000Y-91516000D01*
X142669000Y-86516000D02*
X142669000Y-87960000D01*
X144270000Y-90040000D02*
X144270000Y-92195000D01*
X147935241Y-86846000D02*
X147935241Y-87476000D01*
X143109000Y-90040000D02*
X143109000Y-91790000D01*
X148020000Y-89000000D02*
G75*
G03*
X148020000Y-89000000I-3270000J0D01*
G01*
%TD*%
M02*
