<?xml version="1.0" encoding="UTF-8" standalone="no"?>
<!-- Svg Vector Icons : http://www.onlinewebfonts.com/icon -->

<svg
   version="1.1"
   x="0px"
   y="0px"
   viewBox="0 0 1000 1000"
   enable-background="new 0 0 1000 1000"
   xml:space="preserve"
   id="svg42"
   sodipodi:docname="outline.svg"
   inkscape:version="1.2.2 (b0a8486541, 2022-12-01)"
   xmlns:inkscape="http://www.inkscape.org/namespaces/inkscape"
   xmlns:sodipodi="http://sodipodi.sourceforge.net/DTD/sodipodi-0.dtd"
   xmlns="http://www.w3.org/2000/svg"
   xmlns:svg="http://www.w3.org/2000/svg"><defs
   id="defs46" /><sodipodi:namedview
   id="namedview44"
   pagecolor="#ffffff"
   bordercolor="#000000"
   borderopacity="0.25"
   inkscape:showpageshadow="2"
   inkscape:pageopacity="0.0"
   inkscape:pagecheckerboard="0"
   inkscape:deskcolor="#d1d1d1"
   showgrid="false"
   inkscape:zoom="0.944"
   inkscape:cx="534.95763"
   inkscape:cy="453.91949"
   inkscape:window-width="1920"
   inkscape:window-height="1127"
   inkscape:window-x="0"
   inkscape:window-y="44"
   inkscape:window-maximized="1"
   inkscape:current-layer="g6" />
<metadata
   id="metadata2"> Svg Vector Icons : http://www.onlinewebfonts.com/icon </metadata>
<g
   id="g40"><g
     id="g8"><g
       id="g6"><path
         d="m 500,10 c -12.8,0 -25.2,1.5 -37.4,4.3 -70.9,16 -130.3,75.3 -174.3,136.2 -23.2,32.2 -42.2,64.8 -56.4,91.8 -25.2,48 -47.1,100.6 -64.6,153.2 -27.3,82.5 -43.6,165 -43.6,229.5 0,57.6 13.1,111.6 36.6,159.6 60,122.6 188,205.4 339.7,205.4 33.5,0 65.8,-4.1 96.6,-11.7 128.3,-31.8 228.1,-126 264.6,-248.8 9.8,-33 15.1,-68 15.1,-104.4 C 876.3,519.4 832.8,365.5 768.1,242.3 722.5,155.5 627,10 500,10 Z"
         id="path4"
         sodipodi:nodetypes="sccccscsccscs"
         style="fill:none;stroke:#000000" /></g></g><g
     id="g10" /><g
     id="g12" /><g
     id="g14" /><g
     id="g16" /><g
     id="g18" /><g
     id="g20" /><g
     id="g22" /><g
     id="g24" /><g
     id="g26" /><g
     id="g28" /><g
     id="g30" /><g
     id="g32" /><g
     id="g34" /><g
     id="g36" /><g
     id="g38" /></g>
</svg>
