<?xml version="1.0" encoding="UTF-8" standalone="no"?>
<!-- Svg Vector Icons : http://www.onlinewebfonts.com/icon -->

<svg
   version="1.1"
   x="0px"
   y="0px"
   viewBox="0 0 1000 1000"
   enable-background="new 0 0 1000 1000"
   xml:space="preserve"
   id="svg42"
   sodipodi:docname="inner.svg"
   inkscape:version="1.2.2 (b0a8486541, 2022-12-01)"
   xmlns:inkscape="http://www.inkscape.org/namespaces/inkscape"
   xmlns:sodipodi="http://sodipodi.sourceforge.net/DTD/sodipodi-0.dtd"
   xmlns="http://www.w3.org/2000/svg"
   xmlns:svg="http://www.w3.org/2000/svg"><defs
   id="defs46" /><sodipodi:namedview
   id="namedview44"
   pagecolor="#ffffff"
   bordercolor="#000000"
   borderopacity="0.25"
   inkscape:showpageshadow="2"
   inkscape:pageopacity="0.0"
   inkscape:pagecheckerboard="0"
   inkscape:deskcolor="#d1d1d1"
   showgrid="false"
   inkscape:zoom="0.944"
   inkscape:cx="536.01695"
   inkscape:cy="453.91949"
   inkscape:window-width="1920"
   inkscape:window-height="1127"
   inkscape:window-x="0"
   inkscape:window-y="44"
   inkscape:window-maximized="1"
   inkscape:current-layer="g6" />
<metadata
   id="metadata2"> Svg Vector Icons : http://www.onlinewebfonts.com/icon </metadata>
<g
   id="g40"><g
     id="g8"><g
       id="g6"><path
         d="m 582.7,216.5 c 54.7,-20.1 119.2,18.4 144.1,86.1 24.9,67.6 0.7,138.8 -54,158.9 C 618,481.6 553.5,443 528.7,375.4 503.8,307.7 528,236.6 582.7,216.5 Z M 218.2,797.1 c -9.4,0 -18.5,-1.2 -27.5,-2.9 -28.5,-49.6 -44.8,-107.2 -44.8,-169.1 0,-66 17.7,-151.7 47.2,-236.4 8.2,-1.5 16.5,-2.5 25.1,-2.5 94.1,0 170.4,92 170.4,205.5 -0.1,113.4 -76.3,205.4 -170.4,205.4 z m 90,-618.1 c -2.7,-2.4 -5.2,-5 -7.4,-7.8 43.8,-62.8 104.2,-125.4 175.6,-137 16.9,35.3 8.3,84.1 -24.8,121.2 C 410.1,202 345.9,212.6 308.2,179 Z m 219,545 c -43,-0.2 -77.6,-43.5 -77.3,-96.7 0.3,-53.2 35.4,-96 78.3,-95.8 43,0.2 77.6,43.5 77.3,96.7 -0.2,53.1 -35.3,96 -78.3,95.8 z m 314,-5.6 c -33.4,118.4 -129.2,209.3 -252.7,239 -16,-55.1 -1.3,-122.9 44.1,-176.8 57,-67.8 143.7,-91.5 208.6,-62.2 z"
         id="path4"
         style="fill:none;stroke:#000000"
         sodipodi:nodetypes="scccsscscscscccccssccscccc" /></g></g><g
     id="g10" /><g
     id="g12" /><g
     id="g14" /><g
     id="g16" /><g
     id="g18" /><g
     id="g20" /><g
     id="g22" /><g
     id="g24" /><g
     id="g26" /><g
     id="g28" /><g
     id="g30" /><g
     id="g32" /><g
     id="g34" /><g
     id="g36" /><g
     id="g38" /></g>
</svg>
